<svg id="e5ba4dba-d7c6-4394-adcb-ad50fd27ea2d" xmlns="http://www.w3.org/2000/svg" viewBox="0 0 1009.54 698.63"><defs><style>.cls-1,.cls-11{fill:#ffe8dc;}.cls-1,.cls-4,.cls-6{opacity:0.1;}.cls-1,.cls-12,.cls-4,.cls-6,.cls-9{isolation:isolate;}.cls-2{opacity:0.2;}.cls-3,.cls-4{fill:#07691c;}.cls-5{fill:#3f3d56;}.cls-7{fill:#35323e;}.cls-12,.cls-8{fill:#fff;}.cls-12,.cls-9{opacity:0.03;}.cls-10{fill:#464353;}.cls-13{fill:#444053;}.cls-14{fill:#ffb9b9;}.cls-15{fill:#2f2e41;}.cls-16{fill:#f2da91;}</style></defs><path class="cls-1" d="M586.55,111.4c-64.72-2.25-126.36-23.14-185.22-46S284.17,17.21,221,5.1C180.37-2.69,133.9-3.79,101.17,18,69.66,39,59.48,75.13,54,108.71c-4.12,25.26-6.54,51.84,4.74,75.49,7.84,16.42,21.74,30.22,31.36,46,33.47,54.72,9.81,122.2-26.45,175.63-17,25.07-36.75,49-49.88,75.66s-19.2,57.25-7.71,84.47c11.38,27,38.51,47.24,67.9,61.49,59.69,28.94,130,37.23,198.61,41.92,151.83,10.39,304.46,5.89,456.69,1.39,56.34-1.67,112.92-3.36,168.34-12.07,30.78-4.84,62.55-12.52,84.9-31,28.36-23.53,35.39-63.38,16.38-92.88C967,485.27,878.89,473,856.58,419.86c-12.26-29.23.33-61.8,18.16-88.91C913,272.79,977.07,221.76,980.44,155.28c2.32-45.67-28.49-91.4-76.13-113-49.93-22.65-119.18-19.8-156,17.69C710.36,98.53,643.7,113.38,586.55,111.4Z"/><g class="cls-2"><path class="cls-3" d="M249,627.27a23.25,23.25,0,0,1,1.5,3.57q-12,4.53-24,9.5c-.17-.29-.34-.6-.5-.91A20.56,20.56,0,0,1,223.47,629c.21-4.69,2.29-8.73,6-10.68s8.21-1.41,12.2,1A20.7,20.7,0,0,1,249,627.27Z"/><ellipse class="cls-3" cx="227.73" cy="614.92" rx="13.02" ry="17.05" transform="translate(-260.81 177.52) rotate(-27.84)"/><ellipse class="cls-3" cx="218" cy="596.49" rx="13.02" ry="17.05" transform="translate(-253.33 170.85) rotate(-27.84)"/><ellipse class="cls-3" cx="208.27" cy="578.07" rx="13.02" ry="17.05" transform="translate(-245.86 164.17) rotate(-27.84)"/><ellipse class="cls-3" cx="198.53" cy="559.65" rx="13.02" ry="17.05" transform="translate(-238.38 157.49) rotate(-27.84)"/><path class="cls-3" d="M88.84,456.36a63.55,63.55,0,0,1-7.62-4l27.63-21L76.26,448.89a62.49,62.49,0,0,1-24.13-43.15l55.92-.41L51.85,397a62.38,62.38,0,0,1,124.68,4.71,63.42,63.42,0,0,1-1,8.91,61.88,61.88,0,0,1,11.6,6.74l-28.49,41.14,34.45-36.17a62.42,62.42,0,0,1,18.46,56.49,62.38,62.38,0,1,1-86.7,45.78,62.39,62.39,0,0,1-36-68.19Z"/><path class="cls-4" d="M205.35,438.44a62.07,62.07,0,0,1,6.21,40.33,62.38,62.38,0,1,1-86.7,45.78C112.51,519.07,202.08,432.25,205.35,438.44Z"/></g><g class="cls-2"><path class="cls-3" d="M691.54,496.75a33.19,33.19,0,0,0-1.38,5.2q17.43,3.92,34.85,8.49c.18-.43.36-.89.53-1.35a28.43,28.43,0,0,0,1.39-14.87c-1.19-6.4-4.82-11.56-10.31-13.55s-11.56-.37-16.58,3.76A28.66,28.66,0,0,0,691.54,496.75Z"/><ellipse class="cls-3" cx="718.41" cy="475.72" rx="23.67" ry="18.08" transform="translate(26.03 988.58) rotate(-70.04)"/><ellipse class="cls-3" cx="727.2" cy="447.72" rx="23.66" ry="18.07" transform="translate(58.83 979.28) rotate(-70.11)"/><ellipse class="cls-3" cx="738.16" cy="421.33" rx="23.67" ry="18.08" transform="translate(90.16 971.32) rotate(-70.04)"/><ellipse class="cls-3" cx="748.04" cy="394.14" rx="23.67" ry="18.08" transform="translate(122.22 962.7) rotate(-70.04)"/><path class="cls-3" d="M879.26,231.17a84.59,84.59,0,0,0,9.72-7l-42-23.55,48.17,17.9a86.68,86.68,0,0,0,25-63.94l-77,10.08,75.71-22.22a86.62,86.62,0,0,0-170.57,30.3,87.74,87.74,0,0,0,3,12,87.93,87.93,0,0,0-14.67,11.47l47,51.17-54.27-43.21a86.67,86.67,0,0,0-14.6,81.22,86.61,86.61,0,1,0,128,46.48,86.62,86.62,0,0,0,36.56-100.67Z"/><path class="cls-4" d="M715.59,228.69a86.3,86.3,0,0,0-.86,56.67,86.61,86.61,0,1,0,128,46.48C858.64,322,718.91,219.56,715.59,228.69Z"/></g><ellipse class="cls-3" cx="180.47" cy="642.47" rx="67.3" ry="12.94"/><ellipse class="cls-5" cx="179.34" cy="636.97" rx="7.84" ry="10.26"/><ellipse class="cls-5" cx="179.34" cy="624.43" rx="7.84" ry="10.26"/><ellipse class="cls-5" cx="179.34" cy="611.89" rx="7.84" ry="10.26"/><ellipse class="cls-5" cx="179.34" cy="599.36" rx="7.84" ry="10.26"/><ellipse class="cls-5" cx="179.34" cy="586.82" rx="7.84" ry="10.26"/><ellipse class="cls-5" cx="179.34" cy="574.28" rx="7.84" ry="10.26"/><ellipse class="cls-5" cx="179.34" cy="561.75" rx="7.84" ry="10.26"/><path class="cls-3" d="M208.68,476a35.65,35.65,0,0,0,2.91-4.3L191,468.3l22.26.17a37.5,37.5,0,0,0,.72-29.74l-29.87,15.49L211.67,434a37.54,37.54,0,1,0-62,42,37.59,37.59,0,0,0-4.29,6.84l26.73,13.89-28.5-9.57a37.58,37.58,0,0,0,6.06,35.25,37.53,37.53,0,1,0,59,0,37.53,37.53,0,0,0,0-46.41Z"/><path class="cls-6" d="M141.64,499.15a37.4,37.4,0,0,0,8,23.21,37.53,37.53,0,1,0,59,0C213.71,516,141.64,495,141.64,499.15Z"/><rect class="cls-7" x="268.41" y="178.37" width="483.61" height="104.35" rx="7.42"/><path class="cls-8" d="M309.34,52.15S316.21,239,304,260.85H715.77s-17.49-143.71,0-208.7Z"/><path class="cls-9" d="M309.34,52.15S316.21,239,304,260.85H715.77s-17.49-143.71,0-208.7Z"/><rect class="cls-7" x="351.51" y="252.89" width="301.79" height="37.49"/><path class="cls-10" d="M787.67,694.19H228.31a29.82,29.82,0,0,1-29.82-29.81,30.45,30.45,0,0,1,.18-3.31L210.11,558q1.14-10.28,1.63-20.61l2.15-69.9q.75-23.69,3.2-47.26,1.29-12.21,3-24.39L234.8,293.34a54,54,0,0,1,53.4-46.2h22.34A52.5,52.5,0,0,1,342,257.71c23.14,17.27,88.88,29.73,166.38,29.73S651.58,275,674.77,257.67a52.54,52.54,0,0,1,31.41-10.57h36.19a32.35,32.35,0,0,1,31.86,26.74l19.75,112q3,17.09,5.09,34.3,3.48,28.64,4.37,57.51l2,65A365.4,365.4,0,0,0,809,583.07l10.61,74.31a32.21,32.21,0,0,1-31.89,36.81Z"/><rect class="cls-6" x="241.55" y="434.88" width="534.22" height="229.63" rx="19.96"/><ellipse class="cls-11" cx="275.91" cy="461.74" rx="15.31" ry="12.81"/><ellipse class="cls-6" cx="275.91" cy="461.74" rx="15.31" ry="12.81"/><ellipse class="cls-11" cx="275.91" cy="458.93" rx="15.31" ry="12.81"/><ellipse class="cls-7" cx="294.03" cy="506.42" rx="15.31" ry="12.81"/><ellipse class="cls-6" cx="294.03" cy="506.42" rx="15.31" ry="12.81"/><ellipse class="cls-7" cx="294.03" cy="503.61" rx="15.31" ry="12.81"/><ellipse class="cls-7" cx="304.03" cy="551.1" rx="15.31" ry="12.81"/><ellipse class="cls-6" cx="304.03" cy="551.1" rx="15.31" ry="12.81"/><ellipse class="cls-7" cx="304.03" cy="548.29" rx="15.31" ry="12.81"/><ellipse class="cls-7" cx="265.29" cy="556.41" rx="15.31" ry="12.81"/><ellipse class="cls-6" cx="265.29" cy="556.41" rx="15.31" ry="12.81"/><ellipse class="cls-7" cx="265.29" cy="553.6" rx="15.31" ry="12.81"/><ellipse class="cls-7" cx="322.77" cy="595.77" rx="15.31" ry="12.81"/><ellipse class="cls-6" cx="322.77" cy="595.77" rx="15.31" ry="12.81"/><ellipse class="cls-7" cx="322.77" cy="592.96" rx="15.31" ry="12.81"/><ellipse class="cls-7" cx="271.54" cy="597.34" rx="15.31" ry="12.81"/><ellipse class="cls-6" cx="271.54" cy="597.34" rx="15.31" ry="12.81"/><ellipse class="cls-7" cx="271.54" cy="594.52" rx="15.31" ry="12.81"/><ellipse class="cls-7" cx="364.95" cy="595.77" rx="15.31" ry="12.81"/><ellipse class="cls-6" cx="364.95" cy="595.77" rx="15.31" ry="12.81"/><ellipse class="cls-7" cx="364.95" cy="592.96" rx="15.31" ry="12.81"/><ellipse class="cls-7" cx="409.62" cy="595.77" rx="15.31" ry="12.81"/><ellipse class="cls-6" cx="409.62" cy="595.77" rx="15.31" ry="12.81"/><ellipse class="cls-7" cx="409.62" cy="592.96" rx="15.31" ry="12.81"/><ellipse class="cls-7" cx="450.86" cy="595.77" rx="15.31" ry="12.81"/><ellipse class="cls-6" cx="450.86" cy="595.77" rx="15.31" ry="12.81"/><ellipse class="cls-7" cx="450.86" cy="592.96" rx="15.31" ry="12.81"/><ellipse class="cls-7" cx="496.47" cy="595.77" rx="15.31" ry="12.81"/><ellipse class="cls-6" cx="496.47" cy="595.77" rx="15.31" ry="12.81"/><ellipse class="cls-7" cx="496.47" cy="592.96" rx="15.31" ry="12.81"/><ellipse class="cls-7" cx="537.71" cy="595.77" rx="15.31" ry="12.81"/><ellipse class="cls-6" cx="537.71" cy="595.77" rx="15.31" ry="12.81"/><ellipse class="cls-7" cx="537.71" cy="592.96" rx="15.31" ry="12.81"/><ellipse class="cls-7" cx="578.63" cy="595.77" rx="15.31" ry="12.81"/><ellipse class="cls-6" cx="578.63" cy="595.77" rx="15.31" ry="12.81"/><ellipse class="cls-7" cx="578.63" cy="592.96" rx="15.31" ry="12.81"/><ellipse class="cls-7" cx="623" cy="595.77" rx="15.31" ry="12.81"/><ellipse class="cls-6" cx="623" cy="595.77" rx="15.31" ry="12.81"/><ellipse class="cls-7" cx="623" cy="592.96" rx="15.31" ry="12.81"/><ellipse class="cls-7" cx="664.55" cy="595.77" rx="15.31" ry="12.81"/><ellipse class="cls-6" cx="664.55" cy="595.77" rx="15.31" ry="12.81"/><ellipse class="cls-7" cx="664.55" cy="592.96" rx="15.31" ry="12.81"/><ellipse class="cls-7" cx="710.47" cy="595.77" rx="15.31" ry="12.81"/><ellipse class="cls-6" cx="710.47" cy="595.77" rx="15.31" ry="12.81"/><ellipse class="cls-7" cx="710.47" cy="592.96" rx="15.31" ry="12.81"/><ellipse class="cls-7" cx="757.65" cy="595.77" rx="15.31" ry="12.81"/><ellipse class="cls-6" cx="757.65" cy="595.77" rx="15.31" ry="12.81"/><ellipse class="cls-7" cx="757.65" cy="592.96" rx="15.31" ry="12.81"/><ellipse class="cls-7" cx="346.52" cy="551.1" rx="15.31" ry="12.81"/><ellipse class="cls-6" cx="346.52" cy="551.1" rx="15.31" ry="12.81"/><ellipse class="cls-7" cx="346.52" cy="548.29" rx="15.31" ry="12.81"/><ellipse class="cls-7" cx="389" cy="551.1" rx="15.31" ry="12.81"/><ellipse class="cls-6" cx="389" cy="551.1" rx="15.31" ry="12.81"/><ellipse class="cls-7" cx="389" cy="548.29" rx="15.31" ry="12.81"/><ellipse class="cls-7" cx="432.74" cy="551.1" rx="15.31" ry="12.81"/><ellipse class="cls-6" cx="432.74" cy="551.1" rx="15.31" ry="12.81"/><ellipse class="cls-7" cx="432.74" cy="548.29" rx="15.31" ry="12.81"/><ellipse class="cls-7" cx="474.6" cy="551.1" rx="15.31" ry="12.81"/><ellipse class="cls-6" cx="474.6" cy="551.1" rx="15.31" ry="12.81"/><ellipse class="cls-7" cx="474.6" cy="548.29" rx="15.31" ry="12.81"/><ellipse class="cls-7" cx="517.4" cy="551.1" rx="15.31" ry="12.81"/><ellipse class="cls-6" cx="517.4" cy="551.1" rx="15.31" ry="12.81"/><ellipse class="cls-7" cx="517.4" cy="548.29" rx="15.31" ry="12.81"/><ellipse class="cls-7" cx="558.33" cy="551.1" rx="15.31" ry="12.81"/><ellipse class="cls-6" cx="558.33" cy="551.1" rx="15.31" ry="12.81"/><ellipse class="cls-7" cx="558.33" cy="548.29" rx="15.31" ry="12.81"/><ellipse class="cls-7" cx="602.69" cy="551.1" rx="15.31" ry="12.81"/><ellipse class="cls-6" cx="602.69" cy="551.1" rx="15.31" ry="12.81"/><ellipse class="cls-7" cx="602.69" cy="548.29" rx="15.31" ry="12.81"/><ellipse class="cls-7" cx="644.87" cy="551.1" rx="15.31" ry="12.81"/><ellipse class="cls-6" cx="644.87" cy="551.1" rx="15.31" ry="12.81"/><ellipse class="cls-7" cx="644.87" cy="548.29" rx="15.31" ry="12.81"/><ellipse class="cls-7" cx="687.98" cy="551.1" rx="15.31" ry="12.81"/><ellipse class="cls-6" cx="687.98" cy="551.1" rx="15.31" ry="12.81"/><ellipse class="cls-7" cx="687.98" cy="548.29" rx="15.31" ry="12.81"/><ellipse class="cls-7" cx="731.09" cy="551.1" rx="15.31" ry="12.81"/><ellipse class="cls-6" cx="731.09" cy="551.1" rx="15.31" ry="12.81"/><ellipse class="cls-7" cx="731.09" cy="548.29" rx="15.31" ry="12.81"/><ellipse class="cls-7" cx="337.14" cy="506.42" rx="15.31" ry="12.81"/><ellipse class="cls-6" cx="337.14" cy="506.42" rx="15.31" ry="12.81"/><ellipse class="cls-7" cx="337.14" cy="503.61" rx="15.31" ry="12.81"/><ellipse class="cls-7" cx="380.26" cy="506.42" rx="15.31" ry="12.81"/><ellipse class="cls-6" cx="380.26" cy="506.42" rx="15.31" ry="12.81"/><ellipse class="cls-7" cx="380.26" cy="503.61" rx="15.31" ry="12.81"/><ellipse class="cls-7" cx="421.81" cy="506.42" rx="15.31" ry="12.81"/><ellipse class="cls-6" cx="421.81" cy="506.42" rx="15.31" ry="12.81"/><ellipse class="cls-7" cx="421.81" cy="503.61" rx="15.31" ry="12.81"/><ellipse class="cls-7" cx="463.36" cy="506.42" rx="15.31" ry="12.81"/><ellipse class="cls-6" cx="463.36" cy="506.42" rx="15.31" ry="12.81"/><ellipse class="cls-7" cx="463.36" cy="503.61" rx="15.31" ry="12.81"/><ellipse class="cls-7" cx="505.22" cy="506.42" rx="15.31" ry="12.81"/><ellipse class="cls-6" cx="505.22" cy="506.42" rx="15.31" ry="12.81"/><ellipse class="cls-7" cx="505.22" cy="503.61" rx="15.31" ry="12.81"/><ellipse class="cls-7" cx="546.46" cy="506.42" rx="15.31" ry="12.81"/><ellipse class="cls-6" cx="546.46" cy="506.42" rx="15.31" ry="12.81"/><ellipse class="cls-7" cx="546.46" cy="503.61" rx="15.31" ry="12.81"/><ellipse class="cls-7" cx="590.19" cy="506.42" rx="15.31" ry="12.81"/><ellipse class="cls-6" cx="590.19" cy="506.42" rx="15.31" ry="12.81"/><ellipse class="cls-7" cx="590.19" cy="503.61" rx="15.31" ry="12.81"/><ellipse class="cls-7" cx="631.43" cy="506.42" rx="15.31" ry="12.81"/><ellipse class="cls-6" cx="631.43" cy="506.42" rx="15.31" ry="12.81"/><ellipse class="cls-7" cx="631.43" cy="503.61" rx="15.31" ry="12.81"/><ellipse class="cls-7" cx="675.48" cy="506.42" rx="15.31" ry="12.81"/><ellipse class="cls-6" cx="675.48" cy="506.42" rx="15.31" ry="12.81"/><ellipse class="cls-7" cx="675.48" cy="503.61" rx="15.31" ry="12.81"/><ellipse class="cls-7" cx="718.59" cy="506.42" rx="15.31" ry="12.81"/><ellipse class="cls-6" cx="718.59" cy="506.42" rx="15.31" ry="12.81"/><ellipse class="cls-7" cx="718.59" cy="503.61" rx="15.31" ry="12.81"/><ellipse class="cls-7" cx="315.9" cy="461.74" rx="15.31" ry="12.81"/><ellipse class="cls-6" cx="315.9" cy="461.74" rx="15.31" ry="12.81"/><ellipse class="cls-7" cx="315.9" cy="458.93" rx="15.31" ry="12.81"/><ellipse class="cls-7" cx="358.39" cy="461.74" rx="15.31" ry="12.81"/><ellipse class="cls-6" cx="358.39" cy="461.74" rx="15.31" ry="12.81"/><ellipse class="cls-7" cx="358.39" cy="458.93" rx="15.31" ry="12.81"/><ellipse class="cls-7" cx="399.31" cy="461.74" rx="15.31" ry="12.81"/><ellipse class="cls-6" cx="399.31" cy="461.74" rx="15.31" ry="12.81"/><ellipse class="cls-7" cx="399.31" cy="458.93" rx="15.31" ry="12.81"/><ellipse class="cls-7" cx="441.49" cy="461.74" rx="15.31" ry="12.81"/><ellipse class="cls-6" cx="441.49" cy="461.74" rx="15.31" ry="12.81"/><ellipse class="cls-7" cx="441.49" cy="458.93" rx="15.31" ry="12.81"/><ellipse class="cls-7" cx="483.04" cy="461.74" rx="15.31" ry="12.81"/><ellipse class="cls-6" cx="483.04" cy="461.74" rx="15.31" ry="12.81"/><ellipse class="cls-7" cx="483.04" cy="458.93" rx="15.31" ry="12.81"/><ellipse class="cls-7" cx="525.53" cy="461.74" rx="15.31" ry="12.81"/><ellipse class="cls-6" cx="525.53" cy="461.74" rx="15.31" ry="12.81"/><ellipse class="cls-7" cx="525.53" cy="458.93" rx="15.31" ry="12.81"/><ellipse class="cls-7" cx="567.08" cy="461.74" rx="15.31" ry="12.81"/><ellipse class="cls-6" cx="567.08" cy="461.74" rx="15.31" ry="12.81"/><ellipse class="cls-7" cx="567.08" cy="458.93" rx="15.31" ry="12.81"/><ellipse class="cls-7" cx="609.25" cy="461.74" rx="15.31" ry="12.81"/><ellipse class="cls-6" cx="609.25" cy="461.74" rx="15.31" ry="12.81"/><ellipse class="cls-7" cx="609.25" cy="458.93" rx="15.31" ry="12.81"/><ellipse class="cls-7" cx="652.68" cy="461.74" rx="15.31" ry="12.81"/><ellipse class="cls-6" cx="652.68" cy="461.74" rx="15.31" ry="12.81"/><ellipse class="cls-7" cx="652.68" cy="458.93" rx="15.31" ry="12.81"/><ellipse class="cls-7" cx="695.16" cy="461.74" rx="15.31" ry="12.81"/><ellipse class="cls-6" cx="695.16" cy="461.74" rx="15.31" ry="12.81"/><ellipse class="cls-7" cx="695.16" cy="458.93" rx="15.31" ry="12.81"/><ellipse class="cls-11" cx="736.71" cy="461.74" rx="15.31" ry="12.81"/><ellipse class="cls-6" cx="736.71" cy="461.74" rx="15.31" ry="12.81"/><ellipse class="cls-11" cx="736.71" cy="458.93" rx="15.31" ry="12.81"/><rect class="cls-7" x="275.91" y="625.77" width="467.68" height="24.68" rx="9.07"/><rect class="cls-6" x="275.91" y="625.77" width="467.68" height="24.68" rx="9.07"/><rect class="cls-7" x="275.91" y="623.89" width="467.68" height="24.68" rx="9.07"/><path class="cls-6" d="M679.86,331.46c0,26.4-83.56,54.67-177.77,54.67s-164-30.46-164-56.86,69.81-38.74,164-38.74S679.86,305.06,679.86,331.46Z"/><ellipse class="cls-10" cx="762.64" cy="228.52" rx="10.31" ry="25.46"/><ellipse class="cls-10" cx="257.79" cy="228.52" rx="10.31" ry="25.46"/><rect class="cls-6" x="265.29" y="222.43" width="497.35" height="7.5"/><rect class="cls-10" x="265.29" y="221.18" width="497.35" height="7.5"/><path class="cls-10" d="M521.77,230.55C517.7,229.3,510.21,254,510.21,254H533S525.84,231.8,521.77,230.55Zm-.32,3.12a2.19,2.19,0,1,1-2.18,2.2h0a2.19,2.19,0,0,1,2.19-2.19h0Zm.26,7.06c2.67.65,7.4,12.31,7.4,12.31h-15s4.94-13,7.66-12.31Z"/><path class="cls-12" d="M799.07,420.17h-582q1.29-12.21,3-24.39L234.78,293.3a54,54,0,0,1,53.4-46.2h22.34a52.5,52.5,0,0,1,31.41,10.57c23.14,17.27,88.88,29.73,166.38,29.73S651.58,275,674.77,257.67a52.54,52.54,0,0,1,31.41-10.57h36.19a32.35,32.35,0,0,1,31.86,26.74l19.75,112Q797,403,799.07,420.17Z"/><path class="cls-6" d="M273,204.58a33.9,33.9,0,0,0,7.44-1.78s1.87-.41,4.65-1.34c-.08-1-.14-2.06-.15-3.31a67.19,67.19,0,0,0-1.39-10.66l-10.29,1.87L273,200.85A7.84,7.84,0,0,0,273,204.58Z"/><path class="cls-6" d="M320.05,58.19l1.66,6.71,2.16-1.3c-.48-3-1.22-5.83-1.9-6.48Z"/><path class="cls-6" d="M320,57.1a1.46,1.46,0,0,1,.51,0c1.59.49,3.66,14.25,2,15.51a6.3,6.3,0,0,1-2.79,1.21h-.24L319,69.23l-.39.25v-.19a12,12,0,0,0-2.26-10.19Z"/><path class="cls-13" d="M319,69.3l.53,4.59A6.38,6.38,0,0,0,323,72.61c1.64-1.26-.43-15-2-15.51-1.26-.39-3.47,1.18-4.35,1.85A11.87,11.87,0,0,1,319,69.3Z"/><polygon class="cls-8" points="308.93 52.16 310.5 93.51 355.98 52.16 308.93 52.16"/><polygon class="cls-9" points="308.93 52.16 310.5 93.51 355.98 52.16 308.93 52.16"/><ellipse class="cls-3" cx="847.47" cy="692.13" rx="33.8" ry="6.5"/><ellipse class="cls-5" cx="846.9" cy="689.37" rx="3.94" ry="5.15"/><ellipse class="cls-5" cx="846.9" cy="683.07" rx="3.94" ry="5.15"/><ellipse class="cls-5" cx="846.9" cy="676.77" rx="3.94" ry="5.15"/><ellipse class="cls-5" cx="846.9" cy="670.48" rx="3.94" ry="5.15"/><ellipse class="cls-5" cx="846.9" cy="664.18" rx="3.94" ry="5.15"/><ellipse class="cls-5" cx="846.9" cy="657.88" rx="3.94" ry="5.15"/><ellipse class="cls-5" cx="846.9" cy="651.59" rx="3.94" ry="5.15"/><path class="cls-3" d="M861.64,608.5a19.48,19.48,0,0,0,1.46-2.16l-10.33-1.7,11.18.08a18.77,18.77,0,0,0,.36-14.93l-15,7.78,13.84-10.17a18.85,18.85,0,1,0-32.55,19A18.65,18.65,0,0,0,832,608.5a20.34,20.34,0,0,0-2.15,3.43l13.43,7L829,614.12a19,19,0,0,0,3,17.71,18.85,18.85,0,1,0,29.64,0,18.85,18.85,0,0,0,0-23.31Z"/><path class="cls-6" d="M828,620.15a18.86,18.86,0,0,0,4,11.66,18.85,18.85,0,1,0,29.64,0C864.16,628.6,828,618,828,620.15Z"/><polygon class="cls-14" points="644.38 501.31 656.64 501.31 662.48 454.02 644.38 454.02 644.38 501.31"/><path class="cls-15" d="M680.29,512.69H641.76V497.81H665.4a14.89,14.89,0,0,1,14.89,14.88Z"/><polygon class="cls-14" points="663.52 494.47 675.22 490.8 666.63 443.93 649.36 449.35 663.52 494.47"/><path class="cls-15" d="M701.19,494.58l-36.77,11.54h0L660,491.91h0l22.55-7.08a14.9,14.9,0,0,1,18.67,9.75Z"/><path class="cls-15" d="M655.32,472.7l-22.43-58.87c-5,1.19-47.23,10.52-61.36-4.52-4.84-5.16-5.79-12.63-2.81-22.21L577,376.73l.26,0c3.12.16,76.43,4.27,81.46,26.39,4.24,18.64,12,53.4,14.25,63.61a4.51,4.51,0,0,1-2.82,5.18l-9,3.39a4.4,4.4,0,0,1-1.57.28A4.5,4.5,0,0,1,655.32,472.7Z"/><path class="cls-15" d="M642.32,479.7l-22.43-58.87c-5,1.19-47.23,10.52-61.36-4.52-4.84-5.16-5.79-12.63-2.81-22.21L564,383.73l.26,0c3.12.16,76.43,4.27,81.46,26.39,4.24,18.64,12,53.4,14.25,63.61a4.51,4.51,0,0,1-2.82,5.18l-9,3.39a4.4,4.4,0,0,1-1.57.28A4.5,4.5,0,0,1,642.32,479.7Z"/><path class="cls-14" d="M622.15,365.49a19.23,19.23,0,0,1-16.49-9.37l-7.12-12.07,16.93-9.25,7.19,9.85,48.77-5.14a10,10,0,0,1,.8-1.23h0a11,11,0,1,1,3.15,16.11,10.5,10.5,0,0,1-1-.7,9.17,9.17,0,0,1-.82-.7L626.8,364.9A18.7,18.7,0,0,1,622.15,365.49Z"/><path class="cls-3" d="M555.41,397.21a4.52,4.52,0,0,1-1.82-4.35c2.78-18.35-.42-44.62-3.6-63.44a24.81,24.81,0,0,1,27.56-28.76,79.44,79.44,0,0,1,9.92,2h0a24.59,24.59,0,0,1,18.58,24.46c-.48,18.16,3.21,40.81,4.82,49.71a4.51,4.51,0,0,1-.84,3.51,4.4,4.4,0,0,1-3.09,1.75c-17.81,1.81-37,10.5-46.88,15.51a4.42,4.42,0,0,1-4.65-.35Z"/><path class="cls-3" d="M603.48,349.89A4.5,4.5,0,0,1,601,347.5l-9.93-22.95a11.5,11.5,0,0,1,21.1-9.15v0l9.93,22.94a4.5,4.5,0,0,1-2.34,5.92l-12.85,5.56a4.42,4.42,0,0,1-3.44.05Z"/><circle class="cls-14" cx="575.73" cy="268.3" r="24.56"/><path class="cls-14" d="M613.39,391.13a11,11,0,0,1-6.54-6.15,10.35,10.35,0,0,1-.36-1l-52.32-14.9a10.87,10.87,0,0,1-7.86-10.34l-.13-20.2,19.29.51,1.25,12.14,44.75,20.09a9,9,0,0,1,1.31-.67h0a11,11,0,1,1,.61,20.54Z"/><path class="cls-3" d="M546.48,347.39a4.53,4.53,0,0,1-1.12-3.26l1.54-24.95a11.5,11.5,0,1,1,23,1.37v0l-1.53,25a4.51,4.51,0,0,1-4.77,4.22l-14-.86a4.52,4.52,0,0,1-3.1-1.51Z"/><path class="cls-11" d="M683,359.76H668.89a1.82,1.82,0,0,1-1.82-1.64l-2.83-29h23.43l-2.83,29A1.82,1.82,0,0,1,683,359.76Z"/><path class="cls-5" d="M687.63,332.76H664.28a1.83,1.83,0,0,1-1.83-1.82v-4.38a1.83,1.83,0,0,1,1.83-1.82h23.35a1.81,1.81,0,0,1,1.82,1.82v4.38A1.81,1.81,0,0,1,687.63,332.76Z"/><circle class="cls-16" cx="575.73" cy="264.98" r="33.57"/><circle class="cls-16" cx="563.99" cy="229.65" r="13.89" transform="matrix(0.17, -0.98, 0.98, 0.17, 239.97, 745.23)"/><circle class="cls-14" cx="575.64" cy="275.66" r="24.56"/><ellipse class="cls-16" cx="575.72" cy="243.53" rx="7.83" ry="23.15" transform="translate(154.71 705.6) rotate(-70.59)"/><path class="cls-16" d="M564.69,256.51a13.92,13.92,0,0,1-4.77,18c.45-.18.89-.37,1.32-.59a13.89,13.89,0,0,0-12.67-24.72,12.87,12.87,0,0,0-1.26.72A13.9,13.9,0,0,1,564.69,256.51Z"/><path class="cls-16" d="M579.52,286.76c-1.36.31-2.85.68-3.38,1.35-.21.26-.25.55-.44.82-.87,1.19-4.24,1.43-6,2.38a3.32,3.32,0,0,0-1.54,1.64A6.23,6.23,0,0,0,569.3,300a7.22,7.22,0,0,0,2.45,1.93c3.12,1.52,8.5,1.49,12.38.46A23.2,23.2,0,0,0,593,297.7a17.5,17.5,0,0,0,2.88-2.76l.24-.33a11.18,11.18,0,0,0,1.38-3A50.62,50.62,0,0,0,600,282c.22-2-1.71-3.69-4.08-3.57a12.05,12.05,0,0,0-2.93.42c-2,.7-1.47,2.09-2.21,3.1C589,284.38,584,285.66,579.52,286.76Z"/><path class="cls-16" d="M582.7,289.46c-.46-.12-.9-.23-1.32-.31a4.27,4.27,0,0,1-2.82-2q-1.3-2.23-2.49-4.52c-1.89-3.68,2.77-7.34,6.34-5l.13.09a21.74,21.74,0,0,1,5.12,5.73C589.77,286.67,586.52,290.54,582.7,289.46Z"/><path class="cls-16" d="M560.5,282c-.74-1-.17-2.4-2.21-3.1a12.11,12.11,0,0,0-2.92-.42c-2.38-.12-4.31,1.59-4.09,3.57a49.88,49.88,0,0,0,2.55,9.59,10.88,10.88,0,0,0,1.38,3l.24.33a17.05,17.05,0,0,0,2.85,2.78,23,23,0,0,0,8.84,4.69c3.89,1,9.27,1.06,12.38-.46A7.35,7.35,0,0,0,582,300a6.27,6.27,0,0,0,1.08-7.09,3.45,3.45,0,0,0-1.54-1.64c-1.75-1-5.12-1.19-6-2.38-.19-.27-.22-.56-.43-.82-.54-.67-2-1-3.39-1.35C567.3,285.66,562.24,284.38,560.5,282Z"/><path class="cls-16" d="M564,283.54a21.39,21.39,0,0,1,5.12-5.73l.13-.09c3.57-2.38,8.23,1.28,6.34,5-.79,1.53-1.62,3-2.49,4.52a4.3,4.3,0,0,1-2.82,2c-.42.08-.86.19-1.32.31C565.11,290.54,561.86,286.67,564,283.54Z"/></svg>