<?xml version="1.0" encoding="UTF-8"?><svg id="e5ba4dba-d7c6-4394-adcb-ad50fd27ea2d" xmlns="http://www.w3.org/2000/svg" viewBox="0 0 1009.54 698.63"><defs><style>.cls-1,.cls-2{fill:#ffe8dc;}.cls-1,.cls-3,.cls-4,.cls-5,.cls-6{isolation:isolate;}.cls-7{fill:#2f2e41;}.cls-8,.cls-4{fill:#fff;}.cls-9{fill:#3f3d56;}.cls-10{fill:#444053;}.cls-11{fill:#35323e;}.cls-12{fill:#ffb9b9;}.cls-13,.cls-6{fill:#07691c;}.cls-3,.cls-4{opacity:.03;}.cls-14{fill:#f2da91;}.cls-5,.cls-6{opacity:.1;}.cls-15{opacity:.2;}.cls-16{fill:#464353;}</style></defs><path class="cls-1" d="m586.56,111.4c-64.72-2.25-126.36-23.14-185.22-46S284.18,17.21,221.01,5.1c-40.63-7.79-87.1-8.89-119.83,12.9-31.51,21-41.69,57.13-47.17,90.71-4.12,25.26-6.54,51.84,4.74,75.49,7.84,16.42,21.74,30.22,31.36,46,33.47,54.72,9.81,122.2-26.45,175.63-17,25.07-36.75,49-49.88,75.66s-19.2,57.25-7.71,84.47c11.38,27,38.51,47.24,67.9,61.49,59.69,28.94,130,37.23,198.61,41.92,151.83,10.39,304.46,5.89,456.69,1.39,56.34-1.67,112.92-3.36,168.34-12.07,30.78-4.84,62.55-12.52,84.9-31,28.36-23.53,35.39-63.38,16.38-92.88-31.88-49.54-119.99-61.81-142.3-114.95-12.26-29.23.33-61.8,18.16-88.91,38.26-58.16,102.33-109.19,105.7-175.67,2.32-45.67-28.49-91.4-76.13-113-49.93-22.65-119.18-19.8-156,17.69-37.95,38.56-104.61,53.41-161.76,51.43Z"/><g class="cls-15"><path class="cls-13" d="m249.01,627.27c.6,1.15,1.1,2.34,1.5,3.57-8,3.02-16,6.19-24,9.5-.17-.29-.34-.6-.5-.91-1.75-3.19-2.62-6.79-2.53-10.43.21-4.69,2.29-8.73,6-10.68s8.21-1.41,12.2,1c3.1,1.95,5.63,4.7,7.33,7.95Z"/><ellipse class="cls-13" cx="227.75" cy="614.92" rx="13.02" ry="17.05" transform="translate(-260.81 177.53) rotate(-27.84)"/><ellipse class="cls-13" cx="218.02" cy="596.49" rx="13.02" ry="17.05" transform="translate(-253.33 170.85) rotate(-27.84)"/><ellipse class="cls-13" cx="208.28" cy="578.07" rx="13.02" ry="17.05" transform="translate(-245.85 164.18) rotate(-27.84)"/><ellipse class="cls-13" cx="198.54" cy="559.65" rx="13.02" ry="17.05" transform="translate(-238.38 157.5) rotate(-27.84)"/><path class="cls-13" d="m88.85,456.36c-2.63-1.16-5.17-2.5-7.62-4l27.63-21-32.59,17.53c-13.63-10.45-22.36-26.06-24.13-43.15l55.92-.41-56.2-8.33c1.3-34.43,30.27-61.29,64.69-59.99,34.43,1.3,61.29,30.27,59.99,64.7-.12,2.99-.46,5.97-1,8.91,4.1,1.82,7.99,4.08,11.6,6.74l-28.49,41.14,34.45-36.17c15.3,14.5,22.24,35.75,18.46,56.49,31.48,13.99,45.66,50.86,31.66,82.34-13.99,31.48-50.86,45.66-82.34,31.66-26.32-11.7-41.21-39.89-36.02-68.22-26.29-11.71-41.16-39.88-36-68.19v-.05Z"/><path class="cls-6" d="m205.36,438.44c6.56,12.36,8.74,26.57,6.21,40.33,31.48,13.99,45.66,50.86,31.66,82.34-13.99,31.48-50.86,45.66-82.34,31.66-26.32-11.7-41.21-39.89-36.02-68.22-12.35-5.48,77.22-92.3,80.49-86.11Z"/></g><g class="cls-15"><path class="cls-13" d="m691.55,496.75c-.6,1.69-1.06,3.43-1.38,5.2,11.62,2.61,23.24,5.44,34.85,8.49.18-.43.36-.89.53-1.35,1.78-4.74,2.26-9.88,1.39-14.87-1.19-6.4-4.82-11.56-10.31-13.55s-11.56-.37-16.58,3.76c-3.87,3.28-6.81,7.53-8.5,12.32Z"/><ellipse class="cls-13" cx="718.43" cy="475.72" rx="23.67" ry="18.08" transform="translate(26.04 988.6) rotate(-70.04)"/><ellipse class="cls-13" cx="727.26" cy="447.78" rx="23.66" ry="18.07" transform="translate(58.77 979.32) rotate(-70.11)"/><ellipse class="cls-13" cx="738.18" cy="421.33" rx="23.67" ry="18.08" transform="translate(90.17 971.34) rotate(-70.04)"/><ellipse class="cls-13" cx="748.05" cy="394.14" rx="23.67" ry="18.08" transform="translate(122.23 962.71) rotate(-70.04)"/><path class="cls-13" d="m879.27,231.17c3.4-2.1,6.65-4.44,9.72-7l-42-23.55,48.17,17.9c16.78-16.96,25.82-40.09,25-63.94l-77,10.08,75.71-22.22c-8.37-47.1-53.33-78.5-100.43-70.14-47.1,8.37-78.5,53.33-70.14,100.44.72,4.07,1.72,8.08,3,12-5.28,3.29-10.2,7.14-14.67,11.47l47,51.17-54.27-43.21c-18.27,22.87-23.76,53.42-14.6,81.22-40.62,25.26-53.08,78.66-27.82,119.28,25.26,40.62,78.66,53.08,119.28,27.82,33.93-21.1,49.03-62.67,36.54-100.63,33.96-21.1,49.07-62.7,36.56-100.67l-.05-.03Z"/><path class="cls-6" d="m715.6,228.69c-6.66,18.25-6.96,38.22-.86,56.67-40.62,25.26-53.08,78.66-27.82,119.28,25.26,40.62,78.66,53.08,119.28,27.82,33.93-21.1,49.03-62.67,36.54-100.63,15.91-9.84-123.82-112.28-127.14-103.15Z"/></g><ellipse class="cls-13" cx="180.48" cy="642.47" rx="67.3" ry="12.94"/><ellipse class="cls-9" cx="179.35" cy="636.97" rx="7.84" ry="10.26"/><ellipse class="cls-9" cx="179.35" cy="624.43" rx="7.84" ry="10.26"/><ellipse class="cls-9" cx="179.35" cy="611.89" rx="7.84" ry="10.26"/><ellipse class="cls-9" cx="179.35" cy="599.36" rx="7.84" ry="10.26"/><ellipse class="cls-9" cx="179.35" cy="586.82" rx="7.84" ry="10.26"/><ellipse class="cls-9" cx="179.35" cy="574.28" rx="7.84" ry="10.26"/><ellipse class="cls-9" cx="179.35" cy="561.75" rx="7.84" ry="10.26"/><path class="cls-13" d="m208.69,476c1.07-1.36,2.05-2.8,2.91-4.3l-20.59-3.4,22.26.17c4.33-9.39,4.59-20.15.72-29.74l-29.87,15.49,27.56-20.22c-10.37-17.95-33.33-24.11-51.28-13.74-17.95,10.37-24.11,33.33-13.74,51.28.9,1.56,1.91,3.05,3.02,4.46-1.67,2.12-3.11,4.41-4.29,6.84l26.73,13.89-28.5-9.57c-4.06,12.02-1.78,25.28,6.06,35.25-12.81,16.29-9.99,39.89,6.3,52.7,16.29,12.81,39.89,9.99,52.7-6.3,10.71-13.61,10.71-32.79,0-46.4,10.71-13.62,10.71-32.79,0-46.41h0Z"/><path class="cls-5" d="m141.65,499.15c-.02,8.42,2.8,16.59,8,23.21-12.81,16.29-9.99,39.89,6.3,52.7,16.29,12.81,39.89,9.99,52.7-6.3,10.71-13.61,10.71-32.79,0-46.4,5.07-6.36-67-27.36-67-23.21Z"/><rect class="cls-11" x="268.42" y="178.37" width="483.61" height="104.35" rx="7.42" ry="7.42"/><path class="cls-8" d="m309.35,52.15s6.87,186.85-5.34,208.7h411.77s-17.49-143.71,0-208.7h-406.43Z"/><path class="cls-3" d="m309.35,52.15s6.87,186.85-5.34,208.7h411.77s-17.49-143.71,0-208.7h-406.43Z"/><rect class="cls-11" x="351.52" y="252.89" width="301.79" height="37.49"/><path class="cls-16" d="m787.68,694.19H228.32c-16.47,0-29.81-13.34-29.82-29.81,0-1.11.06-2.21.18-3.31l11.44-103.07c.76-6.85,1.3-13.72,1.63-20.61l2.15-69.9c.5-15.79,1.57-31.55,3.2-47.26.86-8.14,1.86-16.27,3-24.39l14.71-102.5c3.87-26.52,26.6-46.18,53.4-46.2h22.34c11.35.03,22.39,3.74,31.46,10.57,23.14,17.27,88.88,29.73,166.38,29.73s143.2-12.44,166.39-29.77c9.06-6.82,20.07-10.53,31.41-10.57h36.19c15.7,0,29.14,11.28,31.86,26.74l19.75,112c2,11.39,3.7,22.83,5.09,34.3,2.32,19.09,3.78,38.26,4.37,57.51l2,65c.44,13.53,1.63,27.02,3.56,40.42l10.61,74.31c2.54,17.61-9.67,33.94-27.28,36.48-1.53.22-3.07.33-4.61.33h-.05Z"/><rect class="cls-5" x="241.56" y="434.88" width="534.22" height="229.63" rx="19.96" ry="19.96"/><ellipse class="cls-2" cx="275.92" cy="461.74" rx="15.31" ry="12.81"/><ellipse class="cls-5" cx="275.92" cy="461.74" rx="15.31" ry="12.81"/><ellipse class="cls-2" cx="275.92" cy="458.93" rx="15.31" ry="12.81"/><ellipse class="cls-11" cx="294.04" cy="506.42" rx="15.31" ry="12.81"/><ellipse class="cls-5" cx="294.04" cy="506.42" rx="15.31" ry="12.81"/><ellipse class="cls-11" cx="294.04" cy="503.61" rx="15.31" ry="12.81"/><ellipse class="cls-11" cx="304.04" cy="551.1" rx="15.31" ry="12.81"/><ellipse class="cls-5" cx="304.04" cy="551.1" rx="15.31" ry="12.81"/><ellipse class="cls-11" cx="304.04" cy="548.29" rx="15.31" ry="12.81"/><ellipse class="cls-11" cx="265.3" cy="556.41" rx="15.31" ry="12.81"/><ellipse class="cls-5" cx="265.3" cy="556.41" rx="15.31" ry="12.81"/><ellipse class="cls-11" cx="265.3" cy="553.6" rx="15.31" ry="12.81"/><ellipse class="cls-11" cx="322.78" cy="595.77" rx="15.31" ry="12.81"/><ellipse class="cls-5" cx="322.78" cy="595.77" rx="15.31" ry="12.81"/><ellipse class="cls-11" cx="322.78" cy="592.96" rx="15.31" ry="12.81"/><ellipse class="cls-11" cx="271.55" cy="597.34" rx="15.31" ry="12.81"/><ellipse class="cls-5" cx="271.55" cy="597.34" rx="15.31" ry="12.81"/><ellipse class="cls-11" cx="271.55" cy="594.52" rx="15.31" ry="12.81"/><ellipse class="cls-11" cx="364.96" cy="595.77" rx="15.31" ry="12.81"/><ellipse class="cls-5" cx="364.96" cy="595.77" rx="15.31" ry="12.81"/><ellipse class="cls-11" cx="364.96" cy="592.96" rx="15.31" ry="12.81"/><ellipse class="cls-11" cx="409.63" cy="595.77" rx="15.31" ry="12.81"/><ellipse class="cls-5" cx="409.63" cy="595.77" rx="15.31" ry="12.81"/><ellipse class="cls-11" cx="409.63" cy="592.96" rx="15.31" ry="12.81"/><ellipse class="cls-11" cx="450.87" cy="595.77" rx="15.31" ry="12.81"/><ellipse class="cls-5" cx="450.87" cy="595.77" rx="15.31" ry="12.81"/><ellipse class="cls-11" cx="450.87" cy="592.96" rx="15.31" ry="12.81"/><ellipse class="cls-11" cx="496.48" cy="595.77" rx="15.31" ry="12.81"/><ellipse class="cls-5" cx="496.48" cy="595.77" rx="15.31" ry="12.81"/><ellipse class="cls-11" cx="496.48" cy="592.96" rx="15.31" ry="12.81"/><ellipse class="cls-11" cx="537.72" cy="595.77" rx="15.31" ry="12.81"/><ellipse class="cls-5" cx="537.72" cy="595.77" rx="15.31" ry="12.81"/><ellipse class="cls-11" cx="537.72" cy="592.96" rx="15.31" ry="12.81"/><ellipse class="cls-11" cx="578.64" cy="595.77" rx="15.31" ry="12.81"/><ellipse class="cls-5" cx="578.64" cy="595.77" rx="15.31" ry="12.81"/><ellipse class="cls-11" cx="578.64" cy="592.96" rx="15.31" ry="12.81"/><ellipse class="cls-11" cx="623.01" cy="595.77" rx="15.31" ry="12.81"/><ellipse class="cls-5" cx="623.01" cy="595.77" rx="15.31" ry="12.81"/><ellipse class="cls-11" cx="623.01" cy="592.96" rx="15.31" ry="12.81"/><ellipse class="cls-11" cx="664.56" cy="595.77" rx="15.31" ry="12.81"/><ellipse class="cls-5" cx="664.56" cy="595.77" rx="15.31" ry="12.81"/><ellipse class="cls-11" cx="664.56" cy="592.96" rx="15.31" ry="12.81"/><ellipse class="cls-11" cx="710.48" cy="595.77" rx="15.31" ry="12.81"/><ellipse class="cls-5" cx="710.48" cy="595.77" rx="15.31" ry="12.81"/><ellipse class="cls-11" cx="710.48" cy="592.96" rx="15.31" ry="12.81"/><ellipse class="cls-11" cx="757.66" cy="595.77" rx="15.31" ry="12.81"/><ellipse class="cls-5" cx="757.66" cy="595.77" rx="15.31" ry="12.81"/><ellipse class="cls-11" cx="757.66" cy="592.96" rx="15.31" ry="12.81"/><ellipse class="cls-11" cx="346.53" cy="551.1" rx="15.31" ry="12.81"/><ellipse class="cls-5" cx="346.53" cy="551.1" rx="15.31" ry="12.81"/><ellipse class="cls-11" cx="346.53" cy="548.29" rx="15.31" ry="12.81"/><ellipse class="cls-11" cx="389.01" cy="551.1" rx="15.31" ry="12.81"/><ellipse class="cls-5" cx="389.01" cy="551.1" rx="15.31" ry="12.81"/><ellipse class="cls-11" cx="389.01" cy="548.29" rx="15.31" ry="12.81"/><ellipse class="cls-11" cx="432.75" cy="551.1" rx="15.31" ry="12.81"/><ellipse class="cls-5" cx="432.75" cy="551.1" rx="15.31" ry="12.81"/><ellipse class="cls-11" cx="432.75" cy="548.29" rx="15.31" ry="12.81"/><ellipse class="cls-11" cx="474.61" cy="551.1" rx="15.31" ry="12.81"/><ellipse class="cls-5" cx="474.61" cy="551.1" rx="15.31" ry="12.81"/><ellipse class="cls-11" cx="474.61" cy="548.29" rx="15.31" ry="12.81"/><ellipse class="cls-11" cx="517.41" cy="551.1" rx="15.31" ry="12.81"/><ellipse class="cls-5" cx="517.41" cy="551.1" rx="15.31" ry="12.81"/><ellipse class="cls-11" cx="517.41" cy="548.29" rx="15.31" ry="12.81"/><ellipse class="cls-11" cx="558.34" cy="551.1" rx="15.31" ry="12.81"/><ellipse class="cls-5" cx="558.34" cy="551.1" rx="15.31" ry="12.81"/><ellipse class="cls-11" cx="558.34" cy="548.29" rx="15.31" ry="12.81"/><ellipse class="cls-11" cx="602.7" cy="551.1" rx="15.31" ry="12.81"/><ellipse class="cls-5" cx="602.7" cy="551.1" rx="15.31" ry="12.81"/><ellipse class="cls-11" cx="602.7" cy="548.29" rx="15.31" ry="12.81"/><ellipse class="cls-11" cx="644.88" cy="551.1" rx="15.31" ry="12.81"/><ellipse class="cls-5" cx="644.88" cy="551.1" rx="15.31" ry="12.81"/><ellipse class="cls-11" cx="644.88" cy="548.29" rx="15.31" ry="12.81"/><ellipse class="cls-11" cx="687.99" cy="551.1" rx="15.31" ry="12.81"/><ellipse class="cls-5" cx="687.99" cy="551.1" rx="15.31" ry="12.81"/><ellipse class="cls-11" cx="687.99" cy="548.29" rx="15.31" ry="12.81"/><ellipse class="cls-11" cx="731.1" cy="551.1" rx="15.31" ry="12.81"/><ellipse class="cls-5" cx="731.1" cy="551.1" rx="15.31" ry="12.81"/><ellipse class="cls-11" cx="731.1" cy="548.29" rx="15.31" ry="12.81"/><ellipse class="cls-11" cx="337.15" cy="506.42" rx="15.31" ry="12.81"/><ellipse class="cls-5" cx="337.15" cy="506.42" rx="15.31" ry="12.81"/><ellipse class="cls-11" cx="337.15" cy="503.61" rx="15.31" ry="12.81"/><ellipse class="cls-11" cx="380.27" cy="506.42" rx="15.31" ry="12.81"/><ellipse class="cls-5" cx="380.27" cy="506.42" rx="15.31" ry="12.81"/><ellipse class="cls-11" cx="380.27" cy="503.61" rx="15.31" ry="12.81"/><ellipse class="cls-11" cx="421.82" cy="506.42" rx="15.31" ry="12.81"/><ellipse class="cls-5" cx="421.82" cy="506.42" rx="15.31" ry="12.81"/><ellipse class="cls-11" cx="421.82" cy="503.61" rx="15.31" ry="12.81"/><ellipse class="cls-11" cx="463.37" cy="506.42" rx="15.31" ry="12.81"/><ellipse class="cls-5" cx="463.37" cy="506.42" rx="15.31" ry="12.81"/><ellipse class="cls-11" cx="463.37" cy="503.61" rx="15.31" ry="12.81"/><ellipse class="cls-11" cx="505.23" cy="506.42" rx="15.31" ry="12.81"/><ellipse class="cls-5" cx="505.23" cy="506.42" rx="15.31" ry="12.81"/><ellipse class="cls-11" cx="505.23" cy="503.61" rx="15.31" ry="12.81"/><ellipse class="cls-11" cx="546.47" cy="506.42" rx="15.31" ry="12.81"/><ellipse class="cls-5" cx="546.47" cy="506.42" rx="15.31" ry="12.81"/><ellipse class="cls-11" cx="546.47" cy="503.61" rx="15.31" ry="12.81"/><ellipse class="cls-11" cx="590.2" cy="506.42" rx="15.31" ry="12.81"/><ellipse class="cls-5" cx="590.2" cy="506.42" rx="15.31" ry="12.81"/><ellipse class="cls-11" cx="590.2" cy="503.61" rx="15.31" ry="12.81"/><ellipse class="cls-11" cx="631.44" cy="506.42" rx="15.31" ry="12.81"/><ellipse class="cls-5" cx="631.44" cy="506.42" rx="15.31" ry="12.81"/><ellipse class="cls-11" cx="631.44" cy="503.61" rx="15.31" ry="12.81"/><ellipse class="cls-11" cx="675.49" cy="506.42" rx="15.31" ry="12.81"/><ellipse class="cls-5" cx="675.49" cy="506.42" rx="15.31" ry="12.81"/><ellipse class="cls-11" cx="675.49" cy="503.61" rx="15.31" ry="12.81"/><ellipse class="cls-11" cx="718.6" cy="506.42" rx="15.31" ry="12.81"/><ellipse class="cls-5" cx="718.6" cy="506.42" rx="15.31" ry="12.81"/><ellipse class="cls-11" cx="718.6" cy="503.61" rx="15.31" ry="12.81"/><ellipse class="cls-11" cx="315.91" cy="461.74" rx="15.31" ry="12.81"/><ellipse class="cls-5" cx="315.91" cy="461.74" rx="15.31" ry="12.81"/><ellipse class="cls-11" cx="315.91" cy="458.93" rx="15.31" ry="12.81"/><ellipse class="cls-11" cx="358.4" cy="461.74" rx="15.31" ry="12.81"/><ellipse class="cls-5" cx="358.4" cy="461.74" rx="15.31" ry="12.81"/><ellipse class="cls-11" cx="358.4" cy="458.93" rx="15.31" ry="12.81"/><ellipse class="cls-11" cx="399.32" cy="461.74" rx="15.31" ry="12.81"/><ellipse class="cls-5" cx="399.32" cy="461.74" rx="15.31" ry="12.81"/><ellipse class="cls-11" cx="399.32" cy="458.93" rx="15.31" ry="12.81"/><ellipse class="cls-11" cx="441.5" cy="461.74" rx="15.31" ry="12.81"/><ellipse class="cls-5" cx="441.5" cy="461.74" rx="15.31" ry="12.81"/><ellipse class="cls-11" cx="441.5" cy="458.93" rx="15.31" ry="12.81"/><ellipse class="cls-11" cx="483.05" cy="461.74" rx="15.31" ry="12.81"/><ellipse class="cls-5" cx="483.05" cy="461.74" rx="15.31" ry="12.81"/><ellipse class="cls-11" cx="483.05" cy="458.93" rx="15.31" ry="12.81"/><ellipse class="cls-11" cx="525.54" cy="461.74" rx="15.31" ry="12.81"/><ellipse class="cls-5" cx="525.54" cy="461.74" rx="15.31" ry="12.81"/><ellipse class="cls-11" cx="525.54" cy="458.93" rx="15.31" ry="12.81"/><ellipse class="cls-11" cx="567.09" cy="461.74" rx="15.31" ry="12.81"/><ellipse class="cls-5" cx="567.09" cy="461.74" rx="15.31" ry="12.81"/><ellipse class="cls-11" cx="567.09" cy="458.93" rx="15.31" ry="12.81"/><ellipse class="cls-11" cx="609.26" cy="461.74" rx="15.31" ry="12.81"/><ellipse class="cls-5" cx="609.26" cy="461.74" rx="15.31" ry="12.81"/><ellipse class="cls-11" cx="609.26" cy="458.93" rx="15.31" ry="12.81"/><ellipse class="cls-11" cx="652.69" cy="461.74" rx="15.31" ry="12.81"/><ellipse class="cls-5" cx="652.69" cy="461.74" rx="15.31" ry="12.81"/><ellipse class="cls-11" cx="652.69" cy="458.93" rx="15.31" ry="12.81"/><ellipse class="cls-11" cx="695.17" cy="461.74" rx="15.31" ry="12.81"/><ellipse class="cls-5" cx="695.17" cy="461.74" rx="15.31" ry="12.81"/><ellipse class="cls-11" cx="695.17" cy="458.93" rx="15.31" ry="12.81"/><ellipse class="cls-2" cx="736.72" cy="461.74" rx="15.31" ry="12.81"/><ellipse class="cls-5" cx="736.72" cy="461.74" rx="15.31" ry="12.81"/><ellipse class="cls-2" cx="736.72" cy="458.93" rx="15.31" ry="12.81"/><rect class="cls-11" x="275.92" y="625.77" width="467.68" height="24.68" rx="9.07" ry="9.07"/><rect class="cls-5" x="275.92" y="625.77" width="467.68" height="24.68" rx="9.07" ry="9.07"/><rect class="cls-11" x="275.92" y="623.89" width="467.68" height="24.68" rx="9.07" ry="9.07"/><path class="cls-5" d="m679.87,331.46c0,26.4-83.56,54.67-177.77,54.67s-164-30.46-164-56.86,69.81-38.74,164-38.74,177.77,14.53,177.77,40.93Z"/><ellipse class="cls-16" cx="762.65" cy="228.52" rx="10.31" ry="25.46"/><ellipse class="cls-16" cx="257.8" cy="228.52" rx="10.31" ry="25.46"/><rect class="cls-5" x="265.3" y="222.43" width="497.35" height="7.5"/><rect class="cls-16" x="265.3" y="221.18" width="497.35" height="7.5"/><path class="cls-16" d="m521.78,230.55c-4.07-1.25-11.56,23.45-11.56,23.45h22.79s-7.16-22.2-11.23-23.45Zm-.32,3.12c1.21,0,2.19.97,2.2,2.18,0,1.21-.97,2.19-2.18,2.2-1.21,0-2.19-.97-2.2-2.18h0c0-1.21.98-2.19,2.19-2.19h-.01Zm.26,7.05c2.67.65,7.4,12.31,7.4,12.31h-15s4.94-13,7.66-12.31h-.06Z"/><path class="cls-4" d="m799.08,420.17H217.08c.86-8.14,1.86-16.27,3-24.39l14.71-102.48c3.87-26.52,26.6-46.18,53.4-46.2h22.34c11.34.04,22.36,3.75,31.41,10.57,23.14,17.27,88.88,29.73,166.38,29.73s143.27-12.4,166.46-29.73c9.06-6.82,20.07-10.53,31.41-10.57h36.19c15.7,0,29.14,11.28,31.86,26.74l19.75,112c2.01,11.44,3.71,22.88,5.09,34.33Z"/><path class="cls-5" d="m273.01,204.58c2.54-.31,5.04-.91,7.44-1.78,0,0,1.87-.41,4.65-1.34-.08-1-.14-2.06-.15-3.31-.18-3.58-.64-7.15-1.39-10.66l-10.29,1.87-.26,11.49c-.3,1.23-.3,2.5,0,3.73Z"/><path class="cls-5" d="m320.06,58.19l1.66,6.71,2.16-1.3c-.48-3-1.22-5.83-1.9-6.48l-1.92,1.07Z"/><path class="cls-5" d="m320.01,57.1c.17-.03.34-.03.51,0,1.59.49,3.66,14.25,2,15.51-.82.63-1.78,1.04-2.79,1.21h-.24l-.48-4.59-.39.25v-.19c.84-3.56,0-7.32-2.26-10.19l3.65-2Z"/><path class="cls-10" d="m319.01,69.3l.53,4.59c1.26-.07,2.47-.52,3.47-1.28,1.64-1.26-.43-15-2-15.51-1.26-.39-3.47,1.18-4.35,1.85,2.37,2.89,3.24,6.72,2.35,10.35Z"/><polygon class="cls-8" points="308.94 52.16 310.51 93.51 355.99 52.16 308.94 52.16"/><polygon class="cls-3" points="308.94 52.16 310.51 93.51 355.99 52.16 308.94 52.16"/><ellipse class="cls-13" cx="847.48" cy="692.13" rx="33.8" ry="6.5"/><ellipse class="cls-9" cx="846.91" cy="689.37" rx="3.94" ry="5.15"/><ellipse class="cls-9" cx="846.91" cy="683.07" rx="3.94" ry="5.15"/><ellipse class="cls-9" cx="846.91" cy="676.77" rx="3.94" ry="5.15"/><ellipse class="cls-9" cx="846.91" cy="670.48" rx="3.94" ry="5.15"/><ellipse class="cls-9" cx="846.91" cy="664.18" rx="3.94" ry="5.15"/><ellipse class="cls-9" cx="846.91" cy="657.88" rx="3.94" ry="5.15"/><ellipse class="cls-9" cx="846.91" cy="651.59" rx="3.94" ry="5.15"/><path class="cls-13" d="m861.65,608.5c.53-.69,1.02-1.41,1.46-2.16l-10.33-1.7,11.18.08c2.18-4.71,2.31-10.12.36-14.93l-15,7.78,13.84-10.17c-5.03-9.11-16.5-12.42-25.62-7.38-9.11,5.03-12.42,16.5-7.38,25.62.14.26.29.51.45.77.42.73.89,1.43,1.4,2.1-.83,1.07-1.55,2.22-2.15,3.43l13.43,7-14.28-4.81c-2.03,6.03-.9,12.68,3,17.71-6.43,8.18-5.01,20.04,3.17,26.47,8.18,6.43,20.04,5.01,26.47-3.17,5.37-6.84,5.37-16.46,0-23.3,5.38-6.84,5.38-16.47,0-23.31v-.02Z"/><path class="cls-5" d="m828.01,620.15c-.01,4.22,1.4,8.33,4,11.66-6.43,8.18-5.01,20.04,3.17,26.47,8.18,6.43,20.04,5.01,26.47-3.17,5.37-6.84,5.37-16.46,0-23.3,2.52-3.21-33.64-13.81-33.64-11.66Z"/><polygon class="cls-12" points="644.39 501.31 656.65 501.31 662.49 454.02 644.39 454.02 644.39 501.31"/><path class="cls-7" d="m680.3,512.69h-38.53v-14.88h23.64c8.22,0,14.88,6.66,14.89,14.88h0Z"/><polygon class="cls-12" points="663.53 494.47 675.23 490.8 666.64 443.93 649.37 449.35 663.53 494.47"/><path class="cls-7" d="m701.2,494.58l-36.77,11.54h0l-4.42-14.21h0l22.55-7.08c7.85-2.46,16.2,1.9,18.67,9.75h-.03Z"/><path class="cls-7" d="m655.33,472.7l-22.43-58.87c-5,1.19-47.23,10.52-61.36-4.52-4.84-5.16-5.79-12.63-2.81-22.21l8.28-10.37h.26c3.12.16,76.43,4.27,81.46,26.39,4.24,18.64,12,53.4,14.25,63.61.48,2.19-.72,4.39-2.82,5.18l-9,3.39c-.5.19-1.03.28-1.57.28-1.88.03-3.58-1.12-4.26-2.88Z"/><path class="cls-7" d="m642.33,479.7l-22.43-58.87c-5,1.19-47.23,10.52-61.36-4.52-4.84-5.16-5.79-12.63-2.81-22.21l8.28-10.37h.26c3.12.16,76.43,4.27,81.46,26.39,4.24,18.64,12,53.4,14.25,63.61.48,2.19-.72,4.39-2.82,5.18l-9,3.39c-.5.19-1.03.28-1.57.28-1.88.03-3.58-1.12-4.26-2.88Z"/><path class="cls-12" d="m622.16,365.49c-6.76,0-13.02-3.56-16.49-9.37l-7.12-12.07,16.93-9.25,7.19,9.85,48.77-5.14c.24-.43.5-.84.8-1.23h0c3.67-4.84,10.57-5.79,15.41-2.11,4.84,3.67,5.79,10.57,2.11,15.41-3.38,4.45-9.57,5.66-14.38,2.81-.35-.21-.68-.45-1-.7-.29-.22-.56-.45-.82-.7l-46.76,11.91c-1.52.39-3.08.59-4.65.59Z"/><path class="cls-13" d="m555.42,397.21c-1.37-.99-2.08-2.67-1.82-4.35,2.78-18.35-.42-44.62-3.6-63.44-2.29-13.51,6.81-26.32,20.32-28.61,2.39-.41,4.83-.46,7.24-.15,3.35.46,6.66,1.12,9.92,2h0c11.15,2.81,18.87,12.97,18.58,24.46-.48,18.16,3.21,40.81,4.82,49.71.22,1.24-.08,2.51-.84,3.51-.74.99-1.86,1.63-3.09,1.75-17.81,1.81-37,10.5-46.88,15.51-1.49.78-3.29.64-4.65-.35v-.04Z"/><path class="cls-13" d="m603.49,349.89c-1.11-.44-2-1.3-2.48-2.39l-9.93-22.95c-2.46-5.86.29-12.6,6.15-15.06,5.76-2.42,12.4.2,14.95,5.91h0l9.93,22.94c.99,2.28-.06,4.93-2.34,5.92,0,0,0,0,0,0l-12.85,5.56c-1.09.48-2.33.5-3.44.05v.02Z"/><circle class="cls-12" cx="575.74" cy="268.3" r="24.56"/><path class="cls-12" d="m613.4,391.13c-2.96-1.03-5.33-3.26-6.54-6.15-.14-.33-.26-.66-.36-1l-52.32-14.9c-4.62-1.33-7.81-5.53-7.86-10.34l-.13-20.2,19.29.51,1.25,12.14,44.75,20.09c.42-.26.86-.48,1.31-.67h0c5.61-2.34,12.05.31,14.39,5.92,2.34,5.61-.31,12.05-5.92,14.39-2.5,1.04-5.3,1.13-7.85.23v-.02Z"/><path class="cls-13" d="m546.49,347.39c-.79-.9-1.19-2.07-1.12-3.26l1.54-24.95c.38-6.35,5.83-11.19,12.18-10.82s11.19,5.83,10.82,12.18h0l-1.53,25c-.16,2.48-2.29,4.37-4.77,4.22l-14-.86c-1.19-.07-2.31-.62-3.1-1.51h-.02Z"/><path class="cls-2" d="m683.01,359.76h-14.11c-.94,0-1.73-.71-1.82-1.64l-2.83-29h23.43l-2.83,29c-.09.94-.89,1.66-1.84,1.64Z"/><path class="cls-9" d="m687.64,332.76h-23.35c-1.01,0-1.82-.81-1.83-1.82v-4.38c0-1.01.82-1.82,1.83-1.82h23.35c1,0,1.81.8,1.82,1.8,0,0,0,.01,0,.02v4.38c0,1-.8,1.81-1.8,1.82,0,0-.01,0-.02,0Z"/><circle class="cls-14" cx="575.74" cy="264.98" r="33.57"/><circle class="cls-14" cx="563.99" cy="229.63" r="13.89" transform="translate(240 745.24) rotate(-80.01)"/><circle class="cls-12" cx="575.65" cy="275.66" r="24.56"/><ellipse class="cls-14" cx="575.74" cy="243.53" rx="7.83" ry="23.15" transform="translate(154.71 705.62) rotate(-70.59)"/><path class="cls-14" d="m564.7,256.51c3.25,6.34,1.19,14.1-4.77,18,.45-.18.89-.37,1.32-.59,6.78-3.58,9.37-11.99,5.79-18.77-3.52-6.66-11.71-9.3-18.46-5.95-.43.22-.85.46-1.26.72,6.63-2.57,14.12.27,17.38,6.59Z"/><path class="cls-14" d="m579.53,286.76c-1.36.31-2.85.68-3.38,1.35-.21.26-.25.55-.44.82-.87,1.19-4.24,1.43-6,2.38-.69.35-1.23.93-1.54,1.64-1.14,2.36-.68,5.17,1.14,7.05.67.81,1.5,1.47,2.45,1.93,3.12,1.52,8.5,1.49,12.38.46,3.26-.9,6.29-2.5,8.87-4.69,1.06-.81,2.03-1.73,2.88-2.76l.24-.33c.61-.93,1.07-1.94,1.38-3,1.15-3.11,1.98-6.33,2.5-9.61.22-2-1.71-3.69-4.08-3.57-.99.02-1.97.16-2.93.42-2,.7-1.47,2.09-2.21,3.1-1.78,2.43-6.78,3.71-11.26,4.81Z"/><path class="cls-14" d="m582.71,289.46c-.46-.12-.9-.23-1.32-.31-1.18-.24-2.2-.97-2.82-2-.87-1.49-1.7-2.99-2.49-4.52-1.89-3.68,2.77-7.34,6.34-5l.13.09c2.03,1.59,3.77,3.53,5.12,5.73,2.11,3.22-1.14,7.09-4.96,6.01Z"/><path class="cls-14" d="m560.51,282c-.74-1-.17-2.4-2.21-3.1-.95-.26-1.93-.4-2.92-.42-2.38-.12-4.31,1.59-4.09,3.57.53,3.27,1.38,6.49,2.55,9.59.3,1.06.77,2.08,1.38,3l.24.33c.84,1.03,1.79,1.97,2.85,2.78,2.57,2.19,5.58,3.79,8.84,4.69,3.89,1,9.27,1.06,12.38-.46.96-.47,1.81-1.15,2.48-1.98,1.81-1.9,2.24-4.73,1.08-7.09-.32-.7-.86-1.28-1.54-1.64-1.75-1-5.12-1.19-6-2.38-.19-.27-.22-.56-.43-.82-.54-.67-2-1-3.39-1.35-4.42-1.06-9.48-2.34-11.22-4.72Z"/><path class="cls-14" d="m564.01,283.54c1.35-2.2,3.08-4.14,5.12-5.73l.13-.09c3.57-2.38,8.23,1.28,6.34,5-.79,1.53-1.62,3-2.49,4.52-.62,1.03-1.64,1.76-2.82,2-.42.08-.86.19-1.32.31-3.85.99-7.1-2.88-4.96-6.01Z"/></svg>