<svg id="ef801be8-9fb2-4433-98fc-7ef75631d0fc" xmlns="http://www.w3.org/2000/svg" viewBox="0 0 636 637.13"><defs>
  <style type="text/css">
    @import url('https://fonts.googleapis.com/css?family=Roboto:700');
 </style>
<style>.cls-1{opacity:0.3;}.cls-2{fill:#07691c;}.cls-3{fill:none;stroke:#3f3d56;stroke-miterlimit:10;}.cls-4{fill:#ffe8dc;}.cls-5{fill:#ffb9b9;}.cls-6{fill:#2f2e41;}.cls-7{fill:#f2da91;}.cls-8{opacity:0.15;isolation:isolate;}.cls-9{font-size:48px;font-family:Roboto-bold, Roboto;font-weight:700;}</style></defs><g class="cls-1"><path class="cls-2" d="M398.6,508.4a20.85,20.85,0,1,0,8.4-39.2l-1,10.7-3.7-9.8a20.87,20.87,0,0,0-3.7,38.3Z" transform="translate(0 0.1)"/><path class="cls-3" d="M406,635c-.5-9.3,8.3-16.2,16.6-20.3s17.9-8,21.7-16.4c5.5-12.2-3.9-25.3-11.1-36.6a125.69,125.69,0,0,1-12.9-26.6c-1.3-3.8-2.4-7.6-2.3-11.6.1-5.7,2.7-11.1,5.3-16.2q12.9-25.5,27-50.4" transform="translate(0 0.1)"/><path class="cls-3" d="M399.8,505.8a20.85,20.85,0,1,0,8.4-39.2l-1,10.7-3.7-9.8a20.87,20.87,0,0,0-3.7,38.3Z" transform="translate(0 0.1)"/><path class="cls-2" d="M429.6,450.2a20.74,20.74,0,0,1,16.7-11l.3,10.3,4.6-10.1a20.81,20.81,0,1,1-23.8,17.3,20,20,0,0,1,2.2-6.5Z" transform="translate(0 0.1)"/><path class="cls-3" d="M431.2,446.8a20.74,20.74,0,0,1,16.7-11l.3,10.3,4.6-10.1a20.9,20.9,0,1,1-21.6,10.8Z" transform="translate(0 0.1)"/><path class="cls-2" d="M429.6,561.4A20.82,20.82,0,0,0,453,527.3l-3.6,7.8-.3-10.4h0a20.78,20.78,0,1,0-19.5,36.7Z" transform="translate(0 0.1)"/><path class="cls-3" d="M431.1,557.8a20.82,20.82,0,0,0,23.4-34.1l-3.6,7.8-.3-10.4h0a20.78,20.78,0,1,0-19.5,36.7Z" transform="translate(0 0.1)"/><path class="cls-2" d="M403.3,592.5a20.86,20.86,0,1,0,6.3-15.6l7.2,15.1-11.5-9.1A21.52,21.52,0,0,0,403.3,592.5Z" transform="translate(0 0.1)"/><path class="cls-3" d="M404.5,589.9a20.86,20.86,0,1,0,6.3-15.6l7.2,15.1-11.5-9.1A21.52,21.52,0,0,0,404.5,589.9Z" transform="translate(0 0.1)"/></g><g class="cls-1"><path class="cls-4" d="M368.3,510.4a20.85,20.85,0,1,1-8.4-39.2l1,10.7,3.7-9.8a21,21,0,0,1,14.2,15.5A20.43,20.43,0,0,1,368.3,510.4Z" transform="translate(0 0.1)"/><path class="cls-3" d="M360.9,637c.5-9.3-8.3-16.2-16.6-20.3s-17.9-8-21.7-16.4c-5.5-12.2,3.9-25.3,11.1-36.6a125.69,125.69,0,0,0,12.9-26.6c1.3-3.8,2.4-7.6,2.3-11.6-.1-5.7-2.7-11.1-5.3-16.2q-12.9-25.5-27-50.4" transform="translate(0 0.1)"/><path class="cls-3" d="M367.1,507.8a20.85,20.85,0,1,1-8.4-39.2l1,10.7,3.7-9.8a20.87,20.87,0,0,1,3.7,38.3Z" transform="translate(0 0.1)"/><path class="cls-4" d="M337.4,452.2a20.74,20.74,0,0,0-16.7-11l-.3,10.3-4.6-10.1a20.81,20.81,0,1,0,23.8,17.3,26.25,26.25,0,0,0-2.2-6.5Z" transform="translate(0 0.1)"/><path class="cls-3" d="M335.7,448.8a20.74,20.74,0,0,0-16.7-11l-.3,10.3L314.1,438a20.9,20.9,0,1,0,21.6,10.8Z" transform="translate(0 0.1)"/><path class="cls-4" d="M337.3,563.4a20.82,20.82,0,0,1-23.4-34.1l3.6,7.8.3-10.4h0a20.78,20.78,0,1,1,19.5,36.7Z" transform="translate(0 0.1)"/><path class="cls-3" d="M335.8,559.8a20.82,20.82,0,0,1-23.4-34.1l3.6,7.8.3-10.4h0a20.78,20.78,0,1,1,19.5,36.7Z" transform="translate(0 0.1)"/><path class="cls-4" d="M363.6,594.5a20.86,20.86,0,1,1-6.3-15.6L350.1,594l11.5-9.1A20.24,20.24,0,0,1,363.6,594.5Z" transform="translate(0 0.1)"/><path class="cls-3" d="M362.4,591.9a20.86,20.86,0,1,1-6.3-15.6l-7.2,15.1,11.5-9.1A21.52,21.52,0,0,1,362.4,591.9Z" transform="translate(0 0.1)"/></g><g class="cls-1"><path class="cls-3" d="M478.7,636.6c-1.1-20.6,18.5-36,37-45.2s39.8-17.7,48.3-36.5c12.3-27-8.7-56.3-24.7-81.3a276.71,276.71,0,0,1-28.7-59.2c-2.9-8.3-5.4-17-5.2-25.8.3-12.7,6-24.6,11.8-35.9q28.65-56.7,59.9-112" transform="translate(0 0.1)"/><path class="cls-4" d="M601.1,198.6,581,204.4l1.4-9.3c-1.8-.1-3.6-.2-5.4-.2-26.2,0-47.5,12.1-47.5,27s21.3,27,47.5,27,47.5-12.1,47.5-27C624.5,211.9,615.1,203.3,601.1,198.6Z" transform="translate(0 0.1)"/><path class="cls-3" d="M601.1,195.6,581,201.4l1.4-9.3c-1.8-.1-3.6-.2-5.4-.2-26.2,0-47.5,12.1-47.5,27s21.3,27,47.5,27,47.5-12.1,47.5-27C624.5,208.9,615.1,200.3,601.1,195.6Z" transform="translate(0 0.1)"/><path class="cls-4" d="M542.1,541.6,522,547.4l1.4-9.3c-1.8-.1-3.6-.2-5.4-.2-26.2,0-47.5,12.1-47.5,27s21.3,27,47.5,27,47.5-12.1,47.5-27C565.5,554.9,556.1,546.3,542.1,541.6Z" transform="translate(0 0.1)"/><path class="cls-3" d="M542.1,538.6,522,544.4l1.4-9.3c-1.8-.1-3.6-.2-5.4-.2-26.2,0-47.5,12.1-47.5,27s21.3,27,47.5,27,47.5-12.1,47.5-27C565.5,551.9,556.1,543.3,542.1,538.6Z" transform="translate(0 0.1)"/><path class="cls-4" d="M612.1,469.6,592,475.4l1.4-9.3c-1.8-.1-3.6-.2-5.4-.2-26.2,0-47.5,12.1-47.5,27s21.3,27,47.5,27,47.5-12.1,47.5-27C635.5,482.9,626.1,474.3,612.1,469.6Z" transform="translate(0 0.1)"/><path class="cls-3" d="M612.1,466.6,592,472.4l1.4-9.3c-1.8-.1-3.6-.2-5.4-.2-26.2,0-47.5,12.1-47.5,27s21.3,27,47.5,27,47.5-12.1,47.5-27C635.5,479.9,626.1,471.3,612.1,466.6Z" transform="translate(0 0.1)"/><path class="cls-4" d="M529.3,285.8l-20.6-4,5.5-7.7c-1.5-.9-3.1-1.8-4.7-2.6-23.4-11.9-47.8-10.7-54.6,2.6s6.8,33.7,30.1,45.6,47.8,10.7,54.6-2.6C544.1,308.3,539.7,296.4,529.3,285.8Z" transform="translate(0 0.1)"/><path class="cls-3" d="M530.7,283.2l-20.6-4,5.5-7.7c-1.5-.9-3.1-1.8-4.7-2.6-23.4-11.9-47.8-10.7-54.6,2.6s6.8,33.7,30.1,45.6,47.8,10.7,54.6-2.6C545.5,305.6,541,293.7,530.7,283.2Z" transform="translate(0 0.1)"/><path class="cls-4" d="M574.3,390.8l-20.6-4,5.5-7.7c-1.5-.9-3.1-1.8-4.7-2.6-23.4-11.9-47.8-10.7-54.6,2.6s6.8,33.7,30.1,45.6,47.8,10.7,54.6-2.6C589.1,413.3,584.7,401.4,574.3,390.8Z" transform="translate(0 0.1)"/><path class="cls-3" d="M575.7,388.2l-20.6-4,5.5-7.7c-1.5-.9-3.1-1.8-4.7-2.6-23.4-11.9-47.8-10.7-54.6,2.6s6.8,33.7,30.1,45.6,47.8,10.7,54.6-2.6C590.5,410.6,586,398.7,575.7,388.2Z" transform="translate(0 0.1)"/></g><polygon class="cls-5" points="517.1 568.9 526 596.2 538.1 586.1 531.7 564.4 517.1 568.9"/><path class="cls-6" d="M402.7,452.4l3.2,42.6,76.9,1.9,33.7,76.9,18.4-7.6s-21-72.5-30.5-95.4-45.8-6.4-45.8-6.4l-3.2-6.4Z" transform="translate(0 0.1)"/><path class="cls-6" d="M522.2,591s1.3,20.3,3.2,21.6,16.5-1.3,16.5-1.3,4.4,1,22.3-3.8c20.1-5.4-2.5-13.4-2.5-13.4s-14.6-9.5-21-14-10.8,5.1-10.8,5.1C531.1,589.1,522.2,591,522.2,591Z" transform="translate(0 0.1)"/><rect class="cls-4" x="323.1" y="494.3" width="300" height="88.8"/><path class="cls-5" d="M470.7,292.8l9.5-62.3s-10.2-24.8,7-27.3,5.7,29.9,5.7,29.9l-5.7,59.8H470.7Z" transform="translate(0 0.1)"/><path class="cls-5" d="M463.1,586c3.2,5.1,3.8,31.2,3.8,31.2l22.3-14-6.4-22.9Z" transform="translate(0 0.1)"/><path class="cls-6" d="M431.3,449.2s-29.9,0-46.2,8.9c-5.2,2.9-6.8,8-6.4,13.7.9,14.9,13.9,26.6,29.7,27.5l45.9,2.7c-6.8,17.8,8.8,87.1,8.8,87.1l24.4-3.2s-3.4-23.5-2.7-24.8,6.8-50.9,2.7-76.9-59.7-15.3-59.7-15.3Z" transform="translate(0 0.1)"/><path class="cls-6" d="M465.6,611.4s-1.9,18.4-1.3,21,26.7,3.8,50.2-3.2-3.2-14.6-3.2-14.6S495.4,603.8,491,600s-10.8,5.1-10.8,5.1C479,610.8,465.6,611.4,465.6,611.4Z" transform="translate(0 0.1)"/><circle class="cls-7" cx="403.9" cy="312.7" r="32.5"/><circle class="cls-5" cx="403.91" cy="314.55" r="25"/><path class="cls-5" d="M394.4,331.6c8.3,12.1-1.9,19.1-1.9,19.1L388,383.8s47.7,4.5,56-1.9-9.5-27.3-15.9-29.3-7.6-28-7.6-28Z" transform="translate(0 0.1)"/><path class="cls-2" d="M395.6,347.3a25.75,25.75,0,0,0-10.6-5.6c-2.7-.7-6.7-1.8-11.5-.3a18.08,18.08,0,0,0-8.8,6,16.92,16.92,0,0,0-3.4,7.2c-1.5,8.5,5.6,15.2,6.3,15.8-2.1,4.4,4.3,35,0,71.2-1.3,10.8,21.6,22.9,21.6,22.9s33.1-2.5,39.4-5.7,26.7,3.2,26.7,3.2a17.07,17.07,0,0,0,6.7-1c3.8-1.3-9.9-91.9-9.9-91.9-2.9-11.7-5.8-23.3-8.7-35a34.82,34.82,0,0,0-12.5,6.8,32.36,32.36,0,0,0-5.5,5.9l-4.5,21Z" transform="translate(0 0.1)"/><path class="cls-2" d="M493.4,362" transform="translate(0 0.1)"/><polygon class="cls-2" points="452.3 376.2 477.7 328.2 495.5 263.4 470.7 249.3 460.5 302.9 442.7 334.8 442.1 340.5 452.3 376.2"/><path class="cls-5" d="M369.6,419.5l63,2.4s23.5-12.9,28,3.8-29,9.1-29,9.1l-60,1.1Z" transform="translate(0 0.1)"/><path class="cls-2" d="M375,417.3l29.3,1.9,3.8,19.7s-35.6-.6-49.6-1.3,0-59.8,1.9-77.6,11.4-12.7,11.4-12.7l5.7,4.5a145.42,145.42,0,0,1,2.6,28.6A142.33,142.33,0,0,1,375,417.3Z" transform="translate(0 0.1)"/><path class="cls-8" d="M380.1,406.9l25.4,10.2-28-5.7c.9-11.7,1.7-23.3,2.6-35Z" transform="translate(0 0.1)"/><circle class="cls-7" cx="390.56" cy="279" r="13.9"/><ellipse class="cls-7" cx="407.04" cy="297.11" rx="7.8" ry="23.1" transform="translate(-8.44 582.4) rotate(-70.59)"/><path class="cls-7" d="M392.8,301.6a13.85,13.85,0,0,0,4.8,18c-.5-.2-.9-.4-1.3-.6A13.89,13.89,0,0,1,409,294.3c.4.2.9.5,1.3.7A14,14,0,0,0,392.8,301.6Z" transform="translate(0 0.1)"/><path class="cls-7" d="M409.4,333.8c-1.4.3-2.9.7-3.4,1.3a5.9,5.9,0,0,0-.4.8c-.9,1.2-4.2,1.4-6,2.4a3.32,3.32,0,0,0-1.5,1.6,6.4,6.4,0,0,0,1.1,7.1,6.67,6.67,0,0,0,2.5,1.9c3.1,1.5,8.5,1.5,12.4.5a23.15,23.15,0,0,0,8.9-4.7,15.33,15.33,0,0,0,2.9-2.8c.1-.1.2-.2.2-.3a10.32,10.32,0,0,0,1.4-3A45.21,45.21,0,0,0,430,329c.2-2-1.7-3.7-4.1-3.6a13.52,13.52,0,0,0-2.9.4c-2,.7-1.5,2.1-2.2,3.1C418.9,331.5,413.8,332.7,409.4,333.8Z" transform="translate(0 0.1)"/><path class="cls-7" d="M412.6,336.5c-.5-.1-.9-.2-1.3-.3a4.14,4.14,0,0,1-2.8-2c-.9-1.5-1.7-3-2.5-4.5-1.9-3.7,2.8-7.3,6.3-5l.1.1a21.33,21.33,0,0,1,5.1,5.7C419.6,333.8,416.4,337.6,412.6,336.5Z" transform="translate(0 0.1)"/><path class="cls-7" d="M390.4,329c-.7-1-.2-2.4-2.2-3.1a9.67,9.67,0,0,0-2.9-.4c-2.4-.1-4.3,1.6-4.1,3.6a52.1,52.1,0,0,0,2.5,9.6,10.32,10.32,0,0,0,1.4,3l.2.3a15.44,15.44,0,0,0,2.9,2.8,23.48,23.48,0,0,0,8.8,4.7c3.9,1,9.3,1.1,12.4-.5a7.9,7.9,0,0,0,2.5-1.9A6.4,6.4,0,0,0,413,340a3.35,3.35,0,0,0-1.5-1.6c-1.8-1-5.1-1.2-6-2.4-.2-.3-.2-.6-.4-.8-.5-.7-2-1-3.4-1.4C397.2,332.7,392.1,331.5,390.4,329Z" transform="translate(0 0.1)"/><path class="cls-7" d="M393.8,330.6a23.17,23.17,0,0,1,5.1-5.7l.1-.1c3.6-2.4,8.2,1.3,6.3,5-.8,1.5-1.6,3-2.5,4.5a4.14,4.14,0,0,1-2.8,2l-1.3.3C395,337.6,391.7,333.8,393.8,330.6Z" transform="translate(0 0.1)"/><path class="cls-2" d="M319,345" transform="translate(0 0.1)"/><path d="M331.8,367.5" transform="translate(0 0.1)"/><path class="cls-2" d="M462.6,364.7" transform="translate(0 0.1)"/><path class="cls-2" d="M349.8,350.1" transform="translate(0 0.1)"/><path class="cls-4" d="M14,145.4c0,70.1,85.5,126.9,191,126.9A273.22,273.22,0,0,0,290.1,259l60.5,60.5V227.4c28.3-22.1,45.3-50.8,45.3-82.1,0-70.1-85.5-126.9-191-126.9S14,75.3,14,145.4Z" transform="translate(0 0.1)"/><path class="cls-3" d="M.5,127.4c0,70.1,85.5,126.9,191,126.9A273.22,273.22,0,0,0,276.6,241l60.5,60.5V209.4c28.3-22.1,45.3-50.8,45.3-82.1C382.4,57.2,296.9.4,191.4.4S.5,57.3.5,127.4Z" transform="translate(0 0.1)"/><text class="cls-9" transform="translate(130.3 156.23)">Hello!</text></svg>