<?xml version="1.0" encoding="UTF-8"?><svg id="ef801be8-9fb2-4433-98fc-7ef75631d0fc" xmlns="http://www.w3.org/2000/svg" viewBox="0 0 636 637.13"><defs><style>.cls-1{fill:#2f2e41;}.cls-2{font-size:48px;font-family: 'roboto', sans-serif; font-weight: bold;}.cls-2,.cls-3{isolation:isolate;}.cls-4{fill:#ffe8dc;}.cls-5{opacity:.3;}.cls-6{fill:#ffb9b9;}.cls-7{fill:#07691c;}.cls-8{fill:#f2da91;}.cls-3{opacity:.15;}.cls-9{fill:none;stroke:#3f3d56;stroke-miterlimit:10;}.cls-10{letter-spacing:-.01em;}</style></defs><g class="cls-5"><path class="cls-7" d="m398.6,508.5c10.16,5.42,22.79,1.57,28.21-8.59,5.42-10.16,1.57-22.79-8.59-28.21-3.44-1.84-7.33-2.67-11.22-2.4l-1,10.7-3.7-9.8c-11.01,3.42-17.15,15.12-13.73,26.13,1.62,5.21,5.22,9.58,10.03,12.17h0Z"/><path class="cls-9" d="m406,635.1c-.5-9.3,8.3-16.2,16.6-20.3s17.9-8,21.7-16.4c5.5-12.2-3.9-25.3-11.1-36.6-5.33-8.33-9.66-17.26-12.9-26.6-1.3-3.8-2.4-7.6-2.3-11.6.1-5.7,2.7-11.1,5.3-16.2,8.6-17,17.6-33.8,27-50.4"/><path class="cls-9" d="m399.8,505.9c10.16,5.42,22.79,1.57,28.21-8.59,5.42-10.16,1.57-22.79-8.59-28.21-3.44-1.84-7.33-2.67-11.22-2.4l-1,10.7-3.7-9.8c-11.01,3.42-17.15,15.12-13.73,26.13,1.62,5.21,5.22,9.58,10.03,12.17h0Z"/><path class="cls-7" d="m429.6,450.3c3.31-6.29,9.62-10.44,16.7-11l.3,10.3,4.6-10.1c11.35,1.79,19.1,12.45,17.31,23.8s-12.45,19.1-23.8,17.31-19.1-12.45-17.31-23.8c0,0,0,0,0,0,.35-2.28,1.1-4.48,2.2-6.5h0Z"/><path class="cls-9" d="m431.2,446.9c3.31-6.29,9.62-10.44,16.7-11l.3,10.3,4.6-10.1c11.41,1.75,19.24,12.42,17.49,23.83s-12.42,19.24-23.83,17.49c-11.41-1.75-19.24-12.42-17.49-23.83.36-2.34,1.11-4.6,2.23-6.69h0Z"/><path class="cls-7" d="m429.6,561.5c10.17,5.36,22.77,1.45,28.12-8.72,4.49-8.53,2.54-19.03-4.72-25.38l-3.6,7.8-.3-10.4h0c-10.09-5.46-22.7-1.7-28.16,8.39-5.46,10.09-1.7,22.7,8.39,28.16.09.05.18.1.27.14h0Z"/><path class="cls-9" d="m431.1,557.9c10.17,5.36,22.77,1.45,28.12-8.72,4.49-8.53,2.54-19.03-4.72-25.38l-3.6,7.8-.3-10.4h0c-10.09-5.46-22.7-1.7-28.16,8.39-5.46,10.09-1.7,22.7,8.39,28.16.09.05.18.1.27.14Z"/><path class="cls-7" d="m403.3,592.6c.36,11.52,9.99,20.56,21.5,20.2,11.52-.36,20.56-9.99,20.2-21.5-.36-11.52-9.99-20.56-21.5-20.2-5.21.16-10.16,2.27-13.9,5.9l7.2,15.1-11.5-9.1c-1.4,3-2.08,6.29-2,9.6Z"/><path class="cls-9" d="m404.5,590c.36,11.52,9.99,20.56,21.5,20.2,11.52-.36,20.56-9.99,20.2-21.5-.36-11.52-9.99-20.56-21.5-20.2-5.21.16-10.16,2.27-13.9,5.9l7.2,15.1-11.5-9.1c-1.4,3-2.08,6.29-2,9.6Z"/></g><g class="cls-5"><path class="cls-4" d="m368.3,510.5c-10.16,5.42-22.79,1.57-28.21-8.59-5.42-10.16-1.57-22.79,8.59-28.21,3.44-1.84,7.33-2.67,11.22-2.4l1,10.7,3.7-9.8c7.16,2.26,12.58,8.17,14.2,15.5,2.13,9.11-2.19,18.5-10.5,22.8Z"/><path class="cls-9" d="m360.9,637.1c.5-9.3-8.3-16.2-16.6-20.3s-17.9-8-21.7-16.4c-5.5-12.2,3.9-25.3,11.1-36.6,5.33-8.33,9.66-17.26,12.9-26.6,1.3-3.8,2.4-7.6,2.3-11.6-.1-5.7-2.7-11.1-5.3-16.2-8.6-17-17.6-33.8-27-50.4"/><path class="cls-9" d="m367.1,507.9c-10.16,5.42-22.79,1.57-28.21-8.59-5.42-10.16-1.57-22.79,8.59-28.21,3.44-1.84,7.33-2.67,11.22-2.4l1,10.7,3.7-9.8c11.01,3.42,17.15,15.12,13.73,26.13-1.62,5.21-5.22,9.58-10.03,12.17h0Z"/><path class="cls-4" d="m337.4,452.3c-3.31-6.29-9.62-10.44-16.7-11l-.3,10.3-4.6-10.1c-11.35,1.79-19.1,12.45-17.31,23.8s12.45,19.1,23.8,17.31,19.1-12.45,17.31-23.8c0,0,0,0,0,0-.45-2.25-1.19-4.44-2.2-6.5h0Z"/><path class="cls-9" d="m335.7,448.9c-3.31-6.29-9.62-10.44-16.7-11l-.3,10.3-4.6-10.1c-11.41,1.75-19.24,12.42-17.49,23.83s12.42,19.24,23.83,17.49c11.41-1.75,19.24-12.42,17.49-23.83-.36-2.34-1.11-4.6-2.23-6.69Z"/><path class="cls-4" d="m337.3,563.5c-10.17,5.36-22.77,1.45-28.12-8.72-4.49-8.53-2.54-19.03,4.72-25.38l3.6,7.8.3-10.4h0c10.09-5.46,22.7-1.7,28.16,8.39,5.46,10.09,1.7,22.7-8.39,28.16-.09.05-.18.1-.27.14Z"/><path class="cls-9" d="m335.8,559.9c-10.17,5.36-22.77,1.45-28.12-8.72-4.49-8.53-2.54-19.03,4.72-25.38l3.6,7.8.3-10.4h0c10.09-5.46,22.7-1.7,28.16,8.39,5.46,10.09,1.7,22.7-8.39,28.16-.09.05-.18.1-.27.14Z"/><path class="cls-4" d="m363.6,594.6c-.36,11.52-9.99,20.56-21.5,20.2-11.52-.36-20.56-9.99-20.2-21.5.36-11.52,9.99-20.56,21.5-20.2,5.21.16,10.16,2.27,13.9,5.9l-7.2,15.1,11.5-9.1c1.44,2.99,2.13,6.28,2,9.6Z"/><path class="cls-9" d="m362.4,592c-.36,11.52-9.99,20.56-21.5,20.2-11.52-.36-20.56-9.99-20.2-21.5.36-11.52,9.99-20.56,21.5-20.2,5.21.16,10.16,2.27,13.9,5.9l-7.2,15.1,11.5-9.1c1.4,3,2.08,6.29,2,9.6Z"/></g><g class="cls-5"><path class="cls-9" d="m478.7,636.7c-1.1-20.6,18.5-36,37-45.2s39.8-17.7,48.3-36.5c12.3-27-8.7-56.3-24.7-81.3-11.89-18.52-21.52-38.4-28.7-59.2-2.9-8.3-5.4-17-5.2-25.8.3-12.7,6-24.6,11.8-35.9,19.1-37.8,39.07-75.13,59.9-112"/><path class="cls-4" d="m601.1,198.7l-20.1,5.8,1.4-9.3c-1.8-.1-3.6-.2-5.4-.2-26.2,0-47.5,12.1-47.5,27s21.3,27,47.5,27,47.5-12.1,47.5-27c0-10-9.4-18.6-23.4-23.3Z"/><path class="cls-9" d="m601.1,195.7l-20.1,5.8,1.4-9.3c-1.8-.1-3.6-.2-5.4-.2-26.2,0-47.5,12.1-47.5,27s21.3,27,47.5,27,47.5-12.1,47.5-27c0-10-9.4-18.6-23.4-23.3Z"/><path class="cls-4" d="m542.1,541.7l-20.1,5.8,1.4-9.3c-1.8-.1-3.6-.2-5.4-.2-26.2,0-47.5,12.1-47.5,27s21.3,27,47.5,27,47.5-12.1,47.5-27c0-10-9.4-18.6-23.4-23.3Z"/><path class="cls-9" d="m542.1,538.7l-20.1,5.8,1.4-9.3c-1.8-.1-3.6-.2-5.4-.2-26.2,0-47.5,12.1-47.5,27s21.3,27,47.5,27,47.5-12.1,47.5-27c0-10-9.4-18.6-23.4-23.3Z"/><path class="cls-4" d="m612.1,469.7l-20.1,5.8,1.4-9.3c-1.8-.1-3.6-.2-5.4-.2-26.2,0-47.5,12.1-47.5,27s21.3,27,47.5,27,47.5-12.1,47.5-27c0-10-9.4-18.6-23.4-23.3Z"/><path class="cls-9" d="m612.1,466.7l-20.1,5.8,1.4-9.3c-1.8-.1-3.6-.2-5.4-.2-26.2,0-47.5,12.1-47.5,27s21.3,27,47.5,27,47.5-12.1,47.5-27c0-10-9.4-18.6-23.4-23.3Z"/><path class="cls-4" d="m529.3,285.9l-20.6-4,5.5-7.7c-1.5-.9-3.1-1.8-4.7-2.6-23.4-11.9-47.8-10.7-54.6,2.6s6.8,33.7,30.1,45.6,47.8,10.7,54.6-2.6c4.5-8.8.1-20.7-10.3-31.3Z"/><path class="cls-9" d="m530.7,283.3l-20.6-4,5.5-7.7c-1.5-.9-3.1-1.8-4.7-2.6-23.4-11.9-47.8-10.7-54.6,2.6s6.8,33.7,30.1,45.6,47.8,10.7,54.6-2.6c4.5-8.9,0-20.8-10.3-31.3Z"/><path class="cls-4" d="m574.3,390.9l-20.6-4,5.5-7.7c-1.5-.9-3.1-1.8-4.7-2.6-23.4-11.9-47.8-10.7-54.6,2.6s6.8,33.7,30.1,45.6c23.3,11.9,47.8,10.7,54.6-2.6,4.5-8.8.1-20.7-10.3-31.3Z"/><path class="cls-9" d="m575.7,388.3l-20.6-4,5.5-7.7c-1.5-.9-3.1-1.8-4.7-2.6-23.4-11.9-47.8-10.7-54.6,2.6s6.8,33.7,30.1,45.6c23.3,11.9,47.8,10.7,54.6-2.6,4.5-8.9,0-20.8-10.3-31.3Z"/></g><polygon class="cls-6" points="517.1 568.9 526 596.2 538.1 586.1 531.7 564.4 517.1 568.9"/><path class="cls-1" d="m402.7,452.5l3.2,42.6,76.9,1.9,33.7,76.9,18.4-7.6s-21-72.5-30.5-95.4-45.8-6.4-45.8-6.4l-3.2-6.4-52.7-5.6Z"/><path class="cls-1" d="m522.2,591.1s1.3,20.3,3.2,21.6,16.5-1.3,16.5-1.3c0,0,4.4,1,22.3-3.8,20.1-5.4-2.5-13.4-2.5-13.4,0,0-14.6-9.5-21-14s-10.8,5.1-10.8,5.1c1.2,3.9-7.7,5.8-7.7,5.8Z"/><rect class="cls-4" x="323.1" y="494.3" width="300" height="88.8"/><path class="cls-6" d="m470.7,292.9l9.5-62.3s-10.2-24.8,7-27.3,5.7,29.9,5.7,29.9l-5.7,59.8h-16.5v-.1Z"/><path class="cls-6" d="m463.1,586.1c3.2,5.1,3.8,31.2,3.8,31.2l22.3-14-6.4-22.9-19.7,5.7Z"/><path class="cls-1" d="m431.3,449.3s-29.9,0-46.2,8.9c-5.2,2.9-6.8,8-6.4,13.7.9,14.9,13.9,26.6,29.7,27.5l45.9,2.7c-6.8,17.8,8.8,87.1,8.8,87.1l24.4-3.2s-3.4-23.5-2.7-24.8,6.8-50.9,2.7-76.9-59.7-15.3-59.7-15.3l3.5-19.7Z"/><path class="cls-1" d="m465.6,611.5s-1.9,18.4-1.3,21,26.7,3.8,50.2-3.2c23.5-7-3.2-14.6-3.2-14.6,0,0-15.9-10.8-20.3-14.6s-10.8,5.1-10.8,5.1c-1.2,5.7-14.6,6.3-14.6,6.3Z"/><circle class="cls-8" cx="403.9" cy="312.7" r="32.5"/><circle class="cls-6" cx="403.91" cy="314.55" r="25"/><path class="cls-6" d="m394.4,331.7c8.3,12.1-1.9,19.1-1.9,19.1l-4.5,33.1s47.7,4.5,56-1.9-9.5-27.3-15.9-29.3-7.6-28-7.6-28l-26.1,7Z"/><path class="cls-7" d="m395.6,347.4c-3.04-2.67-6.68-4.59-10.6-5.6-2.7-.7-6.7-1.8-11.5-.3-3.47,1.07-6.54,3.16-8.8,6-1.69,2.1-2.86,4.56-3.4,7.2-1.5,8.5,5.6,15.2,6.3,15.8-2.1,4.4,4.3,35,0,71.2-1.3,10.8,21.6,22.9,21.6,22.9,0,0,33.1-2.5,39.4-5.7s26.7,3.2,26.7,3.2c2.28.12,4.56-.22,6.7-1,3.8-1.3-9.9-91.9-9.9-91.9-2.9-11.7-5.8-23.3-8.7-35-4.59,1.38-8.85,3.7-12.5,6.8-2.07,1.73-3.92,3.71-5.5,5.9l-4.5,21-25.3-20.5Z"/><polygon class="cls-7" points="452.3 376.2 477.7 328.2 495.5 263.4 470.7 249.3 460.5 302.9 442.7 334.8 442.1 340.5 452.3 376.2"/><path class="cls-6" d="m369.6,419.6l63,2.4s23.5-12.9,28,3.8-29,9.1-29,9.1l-60,1.1-2-16.4Z"/><path class="cls-7" d="m375,417.4l29.3,1.9,3.8,19.7s-35.6-.6-49.6-1.3,0-59.8,1.9-77.6,11.4-12.7,11.4-12.7l5.7,4.5c1.81,9.42,2.68,19,2.6,28.6-.08,12.47-1.79,24.88-5.1,36.9Z"/><path class="cls-3" d="m380.1,407l25.4,10.2-28-5.7c.9-11.7,1.7-23.3,2.6-35v30.5Z"/><circle class="cls-8" cx="390.56" cy="279" r="13.9"/><ellipse class="cls-8" cx="407.05" cy="297.23" rx="7.8" ry="23.1" transform="translate(-8.56 582.37) rotate(-70.59)"/><path class="cls-8" d="m392.8,301.7c-3.28,6.34-1.2,14.13,4.8,18-.5-.2-.9-.4-1.3-.6-6.75-3.65-9.25-12.08-5.6-18.83,3.54-6.54,11.61-9.13,18.3-5.87.4.2.9.5,1.3.7-6.66-2.59-14.21.25-17.5,6.6Z"/><path class="cls-8" d="m409.4,333.9c-1.4.3-2.9.7-3.4,1.3-.15.26-.29.52-.4.8-.9,1.2-4.2,1.4-6,2.4-.67.35-1.2.91-1.5,1.6-1.12,2.37-.69,5.18,1.1,7.1.67.82,1.53,1.47,2.5,1.9,3.1,1.5,8.5,1.5,12.4.5,3.28-.9,6.31-2.5,8.9-4.7,1.09-.8,2.06-1.74,2.9-2.8.1-.1.2-.2.2-.3.63-.92,1.1-1.93,1.4-3,1.18-3.1,2.02-6.32,2.5-9.6.2-2-1.7-3.7-4.1-3.6-.98.03-1.95.16-2.9.4-2,.7-1.5,2.1-2.2,3.1-1.9,2.6-7,3.8-11.4,4.9Z"/><path class="cls-8" d="m412.6,336.6c-.5-.1-.9-.2-1.3-.3-1.18-.23-2.2-.96-2.8-2-.9-1.5-1.7-3-2.5-4.5-1.9-3.7,2.8-7.3,6.3-5l.1.1c2.03,1.58,3.76,3.51,5.1,5.7,2.1,3.3-1.1,7.1-4.9,6Z"/><path class="cls-8" d="m390.4,329.1c-.7-1-.2-2.4-2.2-3.1-.94-.28-1.92-.41-2.9-.4-2.4-.1-4.3,1.6-4.1,3.6.53,3.27,1.36,6.49,2.5,9.6.3,1.07.77,2.08,1.4,3l.2.3c.84,1.06,1.82,2,2.9,2.8,2.56,2.18,5.56,3.78,8.8,4.7,3.9,1,9.3,1.1,12.4-.5.95-.46,1.8-1.11,2.5-1.9,1.79-1.92,2.22-4.73,1.1-7.1-.31-.69-.83-1.25-1.5-1.6-1.8-1-5.1-1.2-6-2.4-.2-.3-.2-.6-.4-.8-.5-.7-2-1-3.4-1.4-4.5-1.1-9.6-2.3-11.3-4.8Z"/><path class="cls-8" d="m393.8,330.7c1.37-2.17,3.1-4.1,5.1-5.7l.1-.1c3.6-2.4,8.2,1.3,6.3,5-.8,1.5-1.6,3-2.5,4.5-.6,1.04-1.62,1.77-2.8,2l-1.3.3c-3.7,1-7-2.8-4.9-6Z"/><path class="cls-4" d="m14,145.5c0,70.1,85.5,126.9,191,126.9,28.89.09,57.61-4.4,85.1-13.3l60.5,60.5v-92.1c28.3-22.1,45.3-50.8,45.3-82.1,0-70.1-85.5-126.9-191-126.9S14,75.4,14,145.5Z"/><path class="cls-9" d="m.5,127.5c0,70.1,85.5,126.9,191,126.9,28.89.09,57.61-4.4,85.1-13.3l60.5,60.5v-92.1c28.3-22.1,45.3-50.8,45.3-82.1C382.4,57.3,296.9.5,191.4.5S.5,57.4.5,127.5Z"/><text class="cls-2" transform="translate(28.3 156.23)"><tspan x="0" y="0">I’ll be in touch!</tspan></text></svg>