<svg id="e189b3b9-b88e-4ad6-86fc-a3cf637fca9f" xmlns="http://www.w3.org/2000/svg" viewBox="0 0 408.44 441.68"><defs><style>.cls-1{fill:#ffb9b9;}.cls-2{fill:#2f2e41;}.cls-3{opacity:0.1;isolation:isolate;}.cls-4{fill:#07691c;}.cls-5{fill:#f2da91;}.cls-6{fill:#ffe8dc;}.cls-7{fill:#3f3d56;}</style></defs><polygon class="cls-1" points="77.59 382.29 52.77 380.64 61.05 417.87 89.17 406.29 77.59 382.29"/><polygon class="cls-2" points="305.1 312.8 247.19 256.54 214.1 282.19 148.74 360.78 156.19 372.37 235.61 318.59 289.38 388.91 340.67 363.26 305.1 312.8"/><polygon class="cls-3" points="305.1 312.8 247.19 256.54 214.1 282.19 148.74 360.78 156.19 372.37 235.61 318.59 289.38 388.91 340.67 363.26 305.1 312.8"/><path class="cls-1" d="M310.06,350l-7.44,5.79-60.4-20.68-14.06-5.79L200,335.14s0-23.17,26.48-22.34l27.3,6.62,32.26,2.48Z"/><polygon class="cls-2" points="363.84 411.25 345.64 422.83 324.13 422.83 224.02 385.6 77.59 412.08 73.45 380.64 207.48 321.9 324.96 360.78 363.84 411.25"/><path class="cls-1" d="M246.36,264,234,266.47l-2.7-3.15A16.72,16.72,0,0,1,229,245h0l34.74-45.5s9.93-22.34,25.65-13.24-13.24,24-13.24,24l-17.37,27.3,1.66,14.07Z"/><circle class="cls-1" cx="324.96" cy="177.95" r="32.26"/><path class="cls-1" d="M310.48,201.53l14.89,35.57,35.57-14.89s-11.58-28.13-11.58-29S310.48,201.53,310.48,201.53Z"/><path class="cls-4" d="M408.44,306.77a185.49,185.49,0,0,1-9.09,57.34l-2.42,7.43-11.58,52.95-12.41,3.31-9.1-11.59L345.64,403,332.4,381.47l-11.35-18.92-3.54-5.9-12.41-62-47.16-26.47-15.72-2.49,3.31-9.1,14.07-19,14.06-1.65,4.14-3.31,3.31,1.66,13.24-7.45,4.13,1.65,24.19,2.25,14.7-3.07,21.12-11.35,8.66,1.42,29.78,24.82A185.38,185.38,0,0,1,408.44,306.77Z"/><path class="cls-2" d="M60.39,395.1s7.41-12.55,4.28-14-16.42-7.31-16.42-7.31l-19.49-6.46S.63,325.51,0,361.86,20.49,407,20.49,407,39.31,447.44,50,441s21.32-28.37,21.32-28.37S52.07,402.27,60.39,395.1Z"/><polygon class="cls-3" points="399.41 299.56 367.98 320.25 321.05 362.55 317.51 356.65 307.58 307.01 310.06 307.01 335.71 259.85 399.41 299.56"/><polygon class="cls-4" points="335.71 254.89 310.06 302.04 300.96 302.04 295.17 318.59 281.94 321.9 317.51 360.78 367.98 315.28 399.41 294.6 335.71 254.89"/><path class="cls-5" d="M299.86,154l-3.5,1.34a4.87,4.87,0,0,1-1.3-6.77l.06-.09-6.46-.3a48.78,48.78,0,0,1,68.3-9.72,50.2,50.2,0,0,1,4.52,3.85c.3-1,3.5,1,4.81,3,.44-1.65,3.45,6.32,4.51,12,.49-1.88,2.39,1.15.73,4.06,1.05-.16,1.52,2.53.71,4,1.15-.54.95,2.67-.29,4.81,1.64-.14-12.94,22.48-18.84,35.7-1.71-7.87-3.64-16.17-9.16-22-.94-1-2-1.91-3-2.81L335.4,176c-6.46-5.7-12.33-12.74-20.94-14.87-5.91-1.46-9.65-1.8-6.43-8.46-2.91,1.22-5.63,3-8.56,4.15A28.82,28.82,0,0,0,299.86,154Z"/><circle class="cls-1" cx="341.09" cy="181.67" r="5.79"/><rect class="cls-6" x="178.44" y="51.51" width="28" height="28"/><path class="cls-7" d="M223.44,63.51h-34v-34h34ZM190.92,62h31V31h-31Z"/><rect class="cls-6" x="50.03" y="141.36" width="28" height="28" transform="translate(-40.2 23.55) rotate(-15.94)"/><path class="cls-7" d="M74.46,184.62l-9.33-32.7,32.69-9.33,9.34,32.69ZM67,152.94l8.53,29.85,29.85-8.53L96.8,144.41Z"/><rect class="cls-4" x="59.71" y="5.79" width="28" height="28" transform="translate(8.92 60.13) rotate(-46.94)"/><path class="cls-7" d="M54,43.8,77.22,19l24.84,23.22L78.84,67ZM77.29,21.05,56.09,43.73l22.68,21.2L100,42.25Z"/><circle class="cls-5" cx="366.66" cy="138.05" r="9.44"/><path class="cls-5" d="M320.67,178.13"/><path class="cls-5" d="M315.21,193.51c-1.74.48-3.64,1-4.32,2.06-.27.4-.31.84-.56,1.25-1.1,1.81-5.41,2.17-7.63,3.61a5.07,5.07,0,0,0-2,2.5,10.94,10.94,0,0,0,1.37,10.79,9.73,9.73,0,0,0,3.14,2.94c4,2.3,10.83,2.26,15.78.69a28.14,28.14,0,0,0,11.28-7.13,23.56,23.56,0,0,0,3.85-4.45,17.83,17.83,0,0,0,1.9-4.85c1.74-6.41,4-13.53,3.22-20-2.35-.08-6.83-.18-8.91.66-2.59,1-1.87,3.17-2.81,4.7C327.33,190,320.88,191.9,315.21,193.51Z"/><path class="cls-5" d="M313.59,207.45c-3.75.23-10.47-3.92-14.23-3.71a116.05,116.05,0,0,1-6.77-13.86c2-2.87,5.22-3.57,10.09,0C306.59,192.63,312,202.14,313.59,207.45Z"/></svg>