<svg id="Layer_1" data-name="Layer 1" xmlns="http://www.w3.org/2000/svg" viewBox="0 0 248 261.33"><defs><style>.cls-1{fill:#f2da91;}.cls-2{fill:#ffb9b9;}</style></defs><circle class="cls-1" cx="124.23" cy="109.96" r="75"/><circle class="cls-1" cx="98" cy="31.03" r="31.03" transform="translate(50.44 122.16) rotate(-80.01)"/><circle class="cls-2" cx="124.03" cy="133.82" r="54.87"/><ellipse class="cls-1" cx="124.22" cy="62.05" rx="17.49" ry="51.72" transform="translate(24.41 158.59) rotate(-70.59)"/><path class="cls-1" d="M99.57,91a31.06,31.06,0,0,1-10.66,40.22A31,31,0,1,0,63.55,74.71c-1,.49-1.9,1-2.81,1.61A31.08,31.08,0,0,1,99.57,91Z"/><path class="cls-1" d="M132.7,158.62c-3,.7-6.37,1.52-7.55,3-.47.58-.56,1.23-1,1.83-1.94,2.66-9.47,3.2-13.4,5.32a7.64,7.64,0,0,0-3.44,3.66,13.93,13.93,0,0,0,2.55,15.75,15.88,15.88,0,0,0,5.47,4.32c7,3.39,19,3.32,27.66,1a51.29,51.29,0,0,0,19.77-10.47,38.38,38.38,0,0,0,6.44-6.17,7.67,7.67,0,0,0,.53-.74,24.26,24.26,0,0,0,3.08-6.7,111.06,111.06,0,0,0,5.7-21.43c.49-4.46-3.82-8.24-9.11-8a26.84,26.84,0,0,0-6.55.94c-4.47,1.56-3.28,4.67-4.94,6.92C154,153.31,142.64,156.17,132.7,158.62Z"/><path class="cls-1" d="M139.8,164.66c-1-.27-2-.52-3-.7a9.54,9.54,0,0,1-6.3-4.46c-1.94-3.33-3.79-6.71-5.56-10.1-4.22-8.22,6.19-16.4,14.17-11.17l.29.2a48.39,48.39,0,0,1,11.44,12.8C155.6,158.42,148.34,167.07,139.8,164.66Z"/><path class="cls-1" d="M90.21,147.88c-1.66-2.24-.38-5.36-4.94-6.93a27.17,27.17,0,0,0-6.53-.94c-5.31-.26-9.62,3.56-9.13,8a111.66,111.66,0,0,0,5.69,21.42,24.19,24.19,0,0,0,3.09,6.71l.53.73a38.25,38.25,0,0,0,6.37,6.22A51.55,51.55,0,0,0,105,193.54c8.69,2.24,20.71,2.37,27.66-1a16.08,16.08,0,0,0,5.5-4.32,14,14,0,0,0,2.41-15.84,7.87,7.87,0,0,0-3.44-3.66c-3.91-2.23-11.44-2.66-13.41-5.32-.42-.6-.49-1.25-1-1.83-1.2-1.5-4.47-2.23-7.57-3C105.4,156.17,94.09,153.31,90.21,147.88Z"/><path class="cls-1" d="M98,151.43a48.22,48.22,0,0,1,11.44-12.8l.29-.2c8-5.32,18.38,2.86,14.16,11.17-1.76,3.42-3.62,6.7-5.56,10.1a9.46,9.46,0,0,1-6.3,4.46c-.94.18-1.92.43-2.95.7C100.51,167.07,93.24,158.42,98,151.43Z"/><path class="cls-2" d="M.71,148.27a24.21,24.21,0,0,0,22,30L45.5,261.33,75,227.66,48.78,154A24.37,24.37,0,0,0,.71,148.27Z"/><path class="cls-2" d="M247.29,148.27a24.21,24.21,0,0,1-21.95,30L202.5,261.33,173,227.66,199.22,154a24.37,24.37,0,0,1,48.07-5.68Z"/></svg>