<?xml version="1.0" encoding="UTF-8"?><svg id="Layer_1" xmlns="http://www.w3.org/2000/svg" viewBox="0 0 399.35 289.07"><defs><style>.cls-1{fill:#3f3d56;}.cls-2{fill:#07691c;}</style></defs><rect class="cls-2" x="224.44" y="131.81" width="28" height="28" transform="translate(-40.66 131.01) rotate(-28.41)"/><path class="cls-1" d="m221.94,119.48l16.18,29.91-29.9,16.18-16.18-29.91,29.9-16.18Zm14.18,29.31l-14.77-27.3-27.31,14.73,14.78,27.3,27.3-14.73Z"/><rect class="cls-2" x="364.59" y="201.99" width="28" height="28" transform="translate(-43.12 326.19) rotate(-44.35)"/><path class="cls-1" d="m399.35,192.88l-24.31,23.77-23.77-24.31,24.31-23.77,23.77,24.31Zm-24.31,21.68l22.2-21.7-21.7-22.2-22.2,21.7,21.7,22.2Z"/><rect class="cls-2" x="240.73" y="257.99" width="28" height="28" transform="translate(-72.84 449.65) rotate(-75.35)"/><path class="cls-1" d="m285.24,277.89l-32.9-8.6,8.6-32.9,32.9,8.6-8.6,32.9Zm-31.09-9.67l30,7.85,7.85-30-29.96-7.85-7.89,30Z"/><g><rect class="cls-2" x="106.35" y="146.22" width="28" height="28" transform="translate(-62.47 78.18) rotate(-28.92)"/><path class="cls-1" d="m146.52,143.47l-29.76,16.45-16.45-29.76,29.76-16.45,16.45,29.76Zm-29.19,14.42l27.15-14.99-14.99-27.15-27.12,14.96,14.96,27.17Z"/><rect class="cls-2" x="186.68" y="24.02" width="28" height="28" transform="translate(161.82 238.53) rotate(-89.76)"/><path class="cls-1" d="m198.8,7l-.14,34.01-34.01-.14.14-34.01,34.01.14Zm-1.63,32.52l.14-31.01-31.01-.14-.15,30.97,31.02.18Z"/><rect class="cls-2" x="33.45" y="6.97" width="28" height="28" transform="translate(-1.3 38.72) rotate(-43.84)"/><path class="cls-1" d="m24.53,0l23.56,24.53-24.53,23.56L0,23.56,24.53,0Zm21.45,24.49L24.5,2.12,2.13,23.6l21.44,22.35,22.41-21.45Z"/></g></svg>