<svg id="b001403a-1e24-4603-98e8-0a03694cba74" xmlns="http://www.w3.org/2000/svg" viewBox="0 0 490.24 400.11"><defs><style>.cls-1{fill:#ffb9b9;}.cls-2{fill:#2f2e41;}.cls-3{fill:#f2da91;}.cls-4{fill:#07691c;}.cls-5{fill:#3f3d56;}</style></defs><polygon class="cls-1" points="478.85 220.41 478.85 208.15 431.56 202.32 431.56 220.41 478.85 220.41"/><path class="cls-2" d="M490.23,184.51V223H475.35V199.4a14.88,14.88,0,0,1,14.88-14.89Z"/><polygon class="cls-1" points="268.26 388.73 280.52 388.73 286.35 341.44 268.26 341.44 268.26 388.73"/><path class="cls-2" d="M304.17,400.11H265.63V385.23h23.65a14.89,14.89,0,0,1,14.89,14.89Z"/><path class="cls-2" d="M283.42,371.69l-.44,0-16.7-1.39a5.14,5.14,0,0,1-4.69-5.55,1.79,1.79,0,0,1,0-.23l8.67-67.4a3.48,3.48,0,0,0,0-.79L256.51,187.68a5.14,5.14,0,0,1,4.46-5.74,3.64,3.64,0,0,1,.57,0l48.69-.7a6.3,6.3,0,0,1,.75.05l.13,0,9.36,4.05,136.17,15a5.16,5.16,0,0,1,4.48,5.1V223a5.14,5.14,0,0,1-5.14,5.14,3.81,3.81,0,0,1-.59,0l-78.67-9.17a3.14,3.14,0,0,0-1.18.1l-62.21,17.14a3.12,3.12,0,0,0-2.23,2.46L288.47,367.44A5.12,5.12,0,0,1,283.42,371.69Z"/><circle class="cls-3" cx="279.43" cy="49.22" r="33.57"/><circle class="cls-3" cx="267.69" cy="13.89" r="13.89"/><path class="cls-4" d="M283.39,200.15c-8.34,0-17.62-2.31-27.27-8.75l-.17-.11,0-.19c-.09-.38-9-38-9.15-67.1A32.07,32.07,0,0,1,260,97.73,31.14,31.14,0,0,1,288.11,93h0c.63.2,1.25.41,1.88.64a32,32,0,0,1,20.67,32.77c-1.26,15.39-1.77,43.41,9.06,58.22l.25.35-.3.3C319.46,185.49,304.4,200.15,283.39,200.15Z"/><circle class="cls-1" cx="279.34" cy="59.9" r="24.56"/><path class="cls-1" d="M249.25,58.28a10.05,10.05,0,0,1-7.35,12.17,9.39,9.39,0,0,1-1.75.28l-9.48,34.45-12.23-14,10.87-30.57a10.11,10.11,0,0,1,19.94-2.36Z"/><path class="cls-4" d="M212,134.2a9.52,9.52,0,0,1-8.93-12.71l18-50.62a5,5,0,0,1,6-3.16l13.13,3.47a5,5,0,0,1,3.56,6.13,3.53,3.53,0,0,1-.15.46L232.05,109l19.64-6.24a12.77,12.77,0,1,1,7.75,24.34,13.66,13.66,0,0,1-2,.46l-44,6.55A8.53,8.53,0,0,1,212,134.2Z"/><ellipse class="cls-3" cx="279.43" cy="27.78" rx="7.83" ry="23.15" transform="translate(160.36 282.09) rotate(-70.59)"/><path class="cls-1" d="M353.8,208.31A10.06,10.06,0,0,1,346.74,196a9.74,9.74,0,0,1,.62-1.66l-25.51-25,18.16-3.9,21.43,24.37a10.11,10.11,0,0,1-7.64,18.57Z"/><path class="cls-4" d="M342,194.69a4.58,4.58,0,0,1-3.57-1.68l-27.84-33.77L288.83,117.4a13.85,13.85,0,0,1,2.07-12.54,13.26,13.26,0,0,1,11-5.41,16.64,16.64,0,0,1,3.22.37,13.31,13.31,0,0,1,9.56,8.35l18.46,43.36,22.12,27.91a4.63,4.63,0,0,1-.72,6.47l-9.63,7.76A4.62,4.62,0,0,1,342,194.69Z"/><path class="cls-3" d="M268.39,40.75a13.9,13.9,0,0,1-4.77,18,13,13,0,0,0,1.32-.59,13.89,13.89,0,0,0-12.67-24.72q-.65.33-1.26.72A13.91,13.91,0,0,1,268.39,40.75Z"/><path class="cls-3" d="M283.22,71c-1.36.31-2.85.68-3.38,1.35-.21.26-.25.55-.44.82-.87,1.19-4.24,1.43-6,2.38a3.41,3.41,0,0,0-1.54,1.64A6.24,6.24,0,0,0,273,84.24a7.1,7.1,0,0,0,2.45,1.93c3.12,1.52,8.5,1.49,12.38.46a23,23,0,0,0,8.85-4.69,16.92,16.92,0,0,0,2.88-2.76,3.43,3.43,0,0,0,.24-.33,10.87,10.87,0,0,0,1.38-3,49.88,49.88,0,0,0,2.55-9.59c.22-2-1.71-3.69-4.08-3.57a12.21,12.21,0,0,0-2.93.42c-2,.7-1.47,2.09-2.21,3.1C292.73,68.62,287.67,69.9,283.22,71Z"/><path class="cls-3" d="M286.4,73.7c-.46-.12-.9-.23-1.32-.31a4.25,4.25,0,0,1-2.82-2c-.87-1.49-1.7-3-2.49-4.52-1.89-3.68,2.77-7.34,6.34-5l.13.09a21.65,21.65,0,0,1,5.12,5.73C293.47,70.91,290.22,74.78,286.4,73.7Z"/><path class="cls-3" d="M264.2,66.19c-.74-1-.17-2.4-2.21-3.1a12.12,12.12,0,0,0-2.92-.42c-2.38-.12-4.31,1.59-4.09,3.57a49.88,49.88,0,0,0,2.55,9.59,10.87,10.87,0,0,0,1.38,3l.24.33A17,17,0,0,0,262,81.94a23.05,23.05,0,0,0,8.84,4.69c3.89,1,9.27,1.06,12.38-.46a7.14,7.14,0,0,0,2.46-1.93,6.25,6.25,0,0,0,1.08-7.09,3.51,3.51,0,0,0-1.54-1.64c-1.75-1-5.12-1.19-6-2.38-.19-.27-.22-.56-.43-.82-.54-.67-2-1-3.39-1.35C271,69.9,265.94,68.62,264.2,66.19Z"/><path class="cls-3" d="M267.67,67.78a21.65,21.65,0,0,1,5.12-5.73l.13-.09c3.57-2.38,8.23,1.28,6.34,5-.79,1.53-1.62,3-2.49,4.52a4.25,4.25,0,0,1-2.82,2c-.42.08-.86.19-1.32.31C268.81,74.78,265.56,70.91,267.67,67.78Z"/><rect class="cls-4" x="32.41" y="127.58" width="28" height="28" transform="translate(-61.78 39.14) rotate(-28.41)"/><path class="cls-5" d="M29.9,115.26l16.18,29.91-29.9,16.18L0,131.44Zm14.18,29.31-14.77-27.3L2,132l14.78,27.3Z"/><rect class="cls-4" x="172.54" y="197.77" width="28" height="28" transform="translate(-94.88 190.74) rotate(-44.35)"/><path class="cls-5" d="M207.31,188.66,183,212.43l-23.77-24.31,24.31-23.77ZM183,210.34l22.2-21.7-21.7-22.2-22.2,21.7Z"/><rect class="cls-4" x="48.7" y="253.76" width="28" height="28" transform="translate(-212.22 260.71) rotate(-75.35)"/><path class="cls-5" d="M93.2,273.67l-32.9-8.6,8.6-32.9,32.9,8.6ZM62.11,264l30,7.85,7.85-30L70,234Z"/></svg>