<?xml version="1.0" encoding="utf-8"?>
<!-- Generator: Adobe Illustrator 24.3.0, SVG Export Plug-In . SVG Version: 6.00 Build 0)  -->
<svg version="1.1" id="f02737fd-72c1-4c7a-8ed1-3bbe2454c5db"
	 xmlns="http://www.w3.org/2000/svg" xmlns:xlink="http://www.w3.org/1999/xlink" x="0px" y="0px" viewBox="0 0 338.4 682.1"
	 style="enable-background:new 0 0 338.4 682.1;" xml:space="preserve">
<style type="text/css">
	.st0{opacity:0.15;fill:#07691C;}
	.st1{fill:#CCCCCC;}
	.st2{opacity:0.1;}
	.st3{fill:#F2DA91;}
	.st4{fill:#FFB8B8;}
	.st5{fill:#2F2E41;}
	.st6{fill:#FFE8DC;}
</style>
<circle class="st0" cx="241.2" cy="362" r="97.2"/>
<path class="st1" d="M214.9,503.9l23.9,14.8V418.6L212,402c-2.2-1.4-3.8-3.5-4.5-6l0,0c2.6-0.5,5.2,0,7.4,1.4l23.9,14.8v-38.8
	c0-7.5,0.9-15,2.7-22.3c1.8,7.3,2.7,14.8,2.7,22.3v63.4l35.3-21.9c2.8-1.7,6.1-2.6,9.4-2.6c-1.4,3-3.7,5.5-6.5,7.3l-38.2,23.6V682
	h-5.5V525.2L212,508.6c-2.2-1.4-3.8-3.5-4.5-6l0,0C210,502.1,212.7,502.6,214.9,503.9z"/>
<circle class="st0" cx="97.2" cy="370.2" r="97.2"/>
<path class="st1" d="M123.5,512.2L99.6,527V426.9l26.8-16.6c2.2-1.4,3.8-3.5,4.5-6l0,0c-2.6-0.5-5.2,0-7.4,1.4l-23.9,14.8v-38.8
	c0-7.5-0.9-15-2.7-22.3c-1.8,7.3-2.7,14.8-2.7,22.3v63.4l-35.3-21.9c-2.8-1.7-6.1-2.6-9.4-2.6c1.4,3,3.7,5.5,6.5,7.3l38.2,23.6
	v229.1h5.5V533.5l26.8-16.6c2.2-1.4,3.8-3.5,4.5-6l0,0C128.3,510.3,125.7,510.8,123.5,512.2z"/>
<circle class="st0" cx="167.8" cy="167.4" r="167.4"/>
<path class="st1" d="M213,411.7l-41.2,25.5V264.8l46.1-28.6c3.8-2.4,6.6-6.1,7.8-10.4l0,0h0c-4.4-0.8-9,0-12.8,2.4l-41.2,25.5v-66.9
	c0-12.9-1.6-25.8-4.7-38.4c-3.1,12.5-4.7,25.4-4.7,38.4V296l-60.7-37.6c-4.8-3-10.5-4.6-16.2-4.5c2.5,5.1,6.3,9.5,11.2,12.5
	l65.7,40.7v373.8h9.4V448.4l46.1-28.6c3.8-2.4,6.6-6.1,7.8-10.4l0,0h0C221.4,408.5,216.8,409.4,213,411.7z"/>
<g class="st2">
	<path d="M132.6,239.2c0-1.4,0-2.8,0-4.1c-0.1,1.1-0.1,2.1,0,3.2C132.6,238.6,132.6,238.9,132.6,239.2z"/>
</g>
<circle class="st3" cx="172.4" cy="288.4" r="33.6"/>
<circle class="st4" cx="172.4" cy="291.6" r="26.2"/>
<path class="st4" d="M240.7,504.4c3.9-3.5,4.1-9.5,0.6-13.4c-0.4-0.4-0.8-0.8-1.2-1.1l-3.6-31.8l-19.9,5.4l9.7,28.6
	c-2.9,4.4-1.7,10.3,2.7,13.2C232.6,507.8,237.4,507.4,240.7,504.4L240.7,504.4z"/>
<polygon class="st4" points="255.2,665.3 266.2,658.2 244,612.4 227.8,622.9 "/>
<path class="st5" d="M294.1,654.7L259.5,677l0,0l-8.6-13.4l0,0l21.7-14c7.1-4.6,16.6-2.6,21.2,4.5l0,0L294.1,654.7L294.1,654.7z"/>
<polygon class="st4" points="157.9,669.9 170.9,669.9 177.2,619.4 157.9,619.4 "/>
<path class="st5" d="M196.2,682.1H155l0,0v-15.9l0,0h25.9c8.5,0,15.3,6.9,15.3,15.3v0V682.1L196.2,682.1z"/>
<path class="st5" d="M210.4,343.7c-1.7,5.7,4.4,11.8,6.4,17.4c2,5.6,4.7,10.9,5.8,16.8c0.7,4,17.4,92.6,16.6,98
	c-5.1-1.5-10.7-1-15.5,1.4c-3.3-5.9-5.3-12.4-5.9-19.1c-0.2-4-0.2-8,0.1-12c0.5-11.3-4.4-22.6-4.5-33.8c0.1-3.9-0.3-7.8-0.9-11.7
	c-0.5-2.6-0.5-7.6-1.1-10.2c-0.9-4.2,3-6.1,2.8-10.4l-1.2-23.5C212.9,352.4,208.7,347.4,210.4,343.7z"/>
<path class="st5" d="M151.2,442.3c-4.2,6.6-13.1,8-19.3,12.7c-9.5,7.2,14.7,169.7,22.7,198.6c21.1-3.2,21.8-3.1,24.2-4.2
	s4.6-83.6,9.7-100.6c9.6,9,39.7,86.6,46.1,103.8c25.3-6.3,0,0,32.6-8.4c-0.3-6-48.2-200.1-50-215.4
	C195.3,433.1,173.1,437.9,151.2,442.3z"/>
<path class="st6" d="M148.3,320.3c-2.6,7.7,0.9,37.7,1.2,44.4c0.4,6.1,0.4,12.3,0,18.4c-0.9,10.6-4.1,21.3-1.9,31.7
	c1.4,6.9,3.8,13.3,4.4,20.3c0.4,4.9,0.3,9.8,1.8,14.4c5.7-2.4,56-10.8,59.6-15.6c-2.5-12.2-0.1-24.8-1.8-37.2
	c-1-7.1-3.4-14-4.5-21.1c-1.4-8.8-0.8-17.8-3.4-26.3c-1.4-4.3-3.2-8.5-5.4-12.5c-2.2-4.5-5-8.2-5.9-8.2
	C190.2,328.7,148.5,319.6,148.3,320.3z"/>
<path class="st5" d="M138.7,503.7c0,0,8.7-17.4,9.2-27.3c0.2-3.6,9.9-17.8,14.3-21c10.5-7.7,18.2-59,14.6-71.4
	c-6.1-21.5-16.4-41.6-26.8-61.4c-0.3-0.7-0.8-1.4-1.5-1.9c-2.1-1.3-4.4,1.3-5.9,3.3c-4.9,6.9-13,10.6-20.4,14.7s-15,9.5-17.3,17.7
	c-1.5,5.5-0.3,11.3,0.8,16.8c1.1,5.5,5.1,10,8.2,14.6c3.5,5.2,12.6,28,12.5,30.8c0.2,16.8,0.3,33.6-1.7,50.3
	c-1.1,9.4-2.1,28.4-2.1,28.4L138.7,503.7z"/>
<path class="st5" d="M217.9,485.7c-16.1-36.5-15.2-78.1-25.4-116.7c-3-11.4-7.1-23-6.4-34.8c0.1-2.1,0.6-4.5,2.3-5.7
	c1.6-1.1,3.7-0.8,5.4,0s3.2,2,4.9,2.9c2.7,1.4,5.8,1.8,8.4,3.3c3.8,2.3,5.8,6.7,7.5,10.8c3.7,8.8,7.3,17.8,7.6,27.4
	c0.6,18.5-7.6,36.3-3.3,54.3c0.9,3.5,2,7,3.3,10.5c4.3,12.4,7.8,25.1,10.5,37.9C233.3,477.8,218.6,487.3,217.9,485.7z"/>
<path class="st4" d="M166.9,477.1c0.8-5.2-2.7-10-7.9-10.9c-0.6-0.1-1.1-0.1-1.7-0.1l-22.6-22.6l-12.2,16.7l25.4,16.3
	c0.5,5.3,5.1,9.1,10.3,8.7C162.7,484.8,166.3,481.5,166.9,477.1L166.9,477.1z"/>
<path class="st5" d="M94.8,425.8c0.4,3.4,28.9,39.2,44.4,50.9c-0.9-4.6,11.2-19.6,15.2-22c-9.8-9.3-30.3-30.7-31-31.9
	c-2.2-4.3,0-9.4,1.9-13.8c6.1-14.1,9-30.1,5.1-44.9c-1.5-5.6-4.1-11.2-8.7-14.6c-2-1.5-4.8-2.5-7.1-1.4c-1,0.5-1.8,1.3-2.4,2.2
	C104.8,359,94.5,423.3,94.8,425.8z"/>
<ellipse transform="matrix(0.1735 -0.9848 0.9848 0.1735 -116.4466 367.4549)" class="st3" cx="160.7" cy="253.1" rx="13.9" ry="13.9"/>
<ellipse transform="matrix(0.3323 -0.9432 0.9432 0.3323 -136.6838 340.8956)" class="st3" cx="172.4" cy="267" rx="7.8" ry="23.1"/>
<path class="st3" d="M186.9,280c3.3,6.3,1.2,14.1-4.8,18c0.5-0.2,0.9-0.4,1.3-0.6c6.8-3.6,9.4-12,5.8-18.8
	c-3.5-6.7-11.7-9.3-18.5-5.9c-0.4,0.2-0.9,0.5-1.3,0.7C176.1,270.8,183.6,273.7,186.9,280z"/>
<path class="st3" d="M176.2,310.2c-1.4,0.3-2.9,0.7-3.4,1.4c-0.2,0.3-0.3,0.6-0.4,0.8c-0.9,1.2-4.2,1.4-6,2.4
	c-0.7,0.4-1.2,0.9-1.5,1.6c-1.1,2.4-0.7,5.2,1.1,7.1c0.7,0.8,1.5,1.5,2.5,1.9c3.1,1.5,8.5,1.5,12.4,0.5c3.3-0.9,6.3-2.5,8.9-4.7
	c1.1-0.8,2-1.7,2.9-2.8c0.1-0.1,0.2-0.2,0.2-0.3c0.6-0.9,1.1-1.9,1.4-3c1.2-3.1,2-6.3,2.5-9.6c0.2-2-1.7-3.7-4.1-3.6
	c-1,0-2,0.2-2.9,0.4c-2,0.7-1.5,2.1-2.2,3.1C185.7,307.8,180.7,309.1,176.2,310.2z"/>
<path class="st3" d="M179.4,312.9c-0.5-0.1-0.9-0.2-1.3-0.3c-1.2-0.2-2.2-1-2.8-2c-0.9-1.5-1.7-3-2.5-4.5c-1.9-3.7,2.8-7.3,6.3-5
	l0.1,0.1c2,1.6,3.8,3.5,5.1,5.7C186.5,310.1,183.2,314,179.4,312.9z"/>
<path class="st3" d="M157.2,305.4c-0.7-1-0.2-2.4-2.2-3.1c-1-0.3-1.9-0.4-2.9-0.4c-2.4-0.1-4.3,1.6-4.1,3.6c0.5,3.3,1.4,6.5,2.5,9.6
	c0.3,1.1,0.8,2.1,1.4,3l0.2,0.3c0.8,1,1.8,2,2.9,2.8c2.6,2.2,5.6,3.8,8.8,4.7c3.9,1,9.3,1.1,12.4-0.5c1-0.5,1.8-1.1,2.5-1.9
	c1.8-1.9,2.2-4.7,1.1-7.1c-0.3-0.7-0.9-1.3-1.5-1.6c-1.8-1-5.1-1.2-6-2.4c-0.2-0.3-0.2-0.6-0.4-0.8c-0.5-0.7-2-1-3.4-1.4
	C164,309.1,159,307.8,157.2,305.4z"/>
<path class="st3" d="M160.7,307c1.4-2.2,3.1-4.1,5.1-5.7l0.1-0.1c3.6-2.4,8.2,1.3,6.3,5c-0.8,1.5-1.6,3-2.5,4.5
	c-0.6,1-1.6,1.8-2.8,2c-0.4,0.1-0.9,0.2-1.3,0.3C161.8,314,158.6,310.1,160.7,307z"/>
</svg>
